<svg width="497" height="383" fill="none" xmlns="http://www.w3.org/2000/svg"><g clip-path="url('#clip0_3_3')"><path d="M165.704 240.361a7.855 7.855 0 0 0-1.919-6.384 7.9 7.9 0 0 0-2.779-1.996 7.938 7.938 0 0 0-3.366-.638L107 180.342l-10.004 13.93 52.923 45.752a7.907 7.907 0 0 0 2.507 5.042 7.962 7.962 0 0 0 5.235 2.11 7.964 7.964 0 0 0 5.321-1.885 7.909 7.909 0 0 0 2.722-4.93Z" fill="#FFB8B8"/><path d="m141.716 210.911-12.926 12.861a3.332 3.332 0 0 1-4.662.019l-35.32-34.588a12.867 12.867 0 0 1-.061-18.344 12.995 12.995 0 0 1 18.415.126l34.583 35.288a3.303 3.303 0 0 1-.029 4.638Z" fill="#FD9200"/><path d="M96.385 147.785c9.984 0 18.077-8.062 18.077-18.006 0-9.945-8.093-18.007-18.077-18.007-9.983 0-18.077 8.062-18.077 18.007 0 9.944 8.094 18.006 18.077 18.006ZM35.304 345.557l4.577 7.745 32.172-13.899-6.756-11.432-29.993 17.586Z" fill="#FFB8B8"/><path d="m36.675 342.093 9.014 15.254a11.249 11.249 0 0 1 1.204 8.55 11.267 11.267 0 0 1-1.92 3.964 11.316 11.316 0 0 1-3.298 2.93l-.318.185L26.6 348.001l10.076-5.908Z" fill="#2F2E41"/><path d="M88.338 373.461h9.023l4.293-34.668-13.318.001.002 34.667Z" fill="#FFB8B8"/><path d="m86.037 370.527 17.769-.001h.001a11.364 11.364 0 0 1 8.008 3.304 11.288 11.288 0 0 1 2.455 3.66 11.24 11.24 0 0 1 .862 4.317v.366l-29.095.001v-11.647ZM52.062 352.457a3.315 3.315 0 0 1-2.668-1.343l-8.702-11.773a3.304 3.304 0 0 1-.595-2.527 3.305 3.305 0 0 1 1.423-2.173l38.724-25.763-23.366-61.198 49.967 4.107 1.683 52.59a26.357 26.357 0 0 1-3.334 13.719 26.478 26.478 0 0 1-9.948 10.052l-41.53 23.866a3.312 3.312 0 0 1-1.654.443Z" fill="#2F2E41"/><path d="M88.61 366.423a3.318 3.318 0 0 1-2.296-.927 3.292 3.292 0 0 1-1.007-2.254l-1.832-51.233 22.675-1.19-1.805 51.601a3.287 3.287 0 0 1-.929 2.183 3.312 3.312 0 0 1-2.162.993l-12.418.82c-.076.005-.15.007-.226.007Z" fill="#2F2E41"/><path d="M112.627 261.961c-5.769 0-25.92-6.464-32.915-8.767-1.046.834-6.795 5.116-13.506 4.333-4.14-.484-7.786-2.819-10.835-6.94-6.732-9.101 1.583-48.13 9.744-79.27a25.133 25.133 0 0 1 11.221-15.113 25.3 25.3 0 0 1 18.608-3.127 25.466 25.466 0 0 1 12.257 6.582 25.321 25.321 0 0 1 6.944 12.023c1.536 6.23.215 13.559-.751 18.911-.453 2.515-.812 4.503-.689 5.479.474 3.775 3.105 62.97 1.413 65.498-.18.269-.701.391-1.491.391Z" fill="#FD9200"/><path d="M91.522 262.066a7.886 7.886 0 0 0 2.24-2.583 7.855 7.855 0 0 0-1.546-9.474l.357-71.732-16.961 2.813 4.982 69.626a7.897 7.897 0 0 0 .403 10.51 7.974 7.974 0 0 0 10.525.84Z" fill="#FFB8B8"/><path d="M95.445 224.344H77.177a3.33 3.33 0 0 1-2.329-.959 3.3 3.3 0 0 1-.984-2.31l-.448-49.334a12.895 12.895 0 0 1 3.758-9.207 12.96 12.96 0 0 1 4.223-2.827 13.001 13.001 0 0 1 9.978.013 12.945 12.945 0 0 1 7.01 7.072 12.86 12.86 0 0 1 .941 4.98l-.569 49.311a3.305 3.305 0 0 1-.986 2.305 3.334 3.334 0 0 1-2.326.956Z" fill="#FD9200"/><path d="M91.782 147.71c-8.276.015-16.084-6.501-17.519-14.621a20.942 20.942 0 0 1 .677-9.541 25.595 25.595 0 0 1 5.234-9.531 25.716 25.716 0 0 1 8.729-6.515 25.81 25.81 0 0 1 21.318-.048c2.214.998 4.395 2.432 5.408 4.632 1.014 2.2.38 5.275-1.838 6.265-1.449.647-3.268.329-4.554 1.258-1.847 1.333-1.371 4.172-.547 6.291.825 2.118 1.758 4.682.375 6.49-1.288 1.684-3.863 1.632-5.891.998-2.028-.634-4.03-1.696-6.145-1.48-3.084.315-5.3 3.371-5.71 6.432-.41 3.061.555 6.121 1.509 9.059l-1.046.311Z" fill="#2F2E41"/><path d="M317.984 166.087C317.984 116.846 358.058 0 407.492 0S497 116.846 497 166.087c0 23.647-9.43 46.324-26.216 63.045-16.786 16.72-39.553 26.114-63.292 26.114-23.739 0-46.506-9.394-63.292-26.114-16.786-16.721-26.216-39.398-26.216-63.045Z" fill="#FD9200"/><path d="M407.492 383a.735.735 0 0 1-.736-.733V74.877a.732.732 0 0 1 .736-.733.731.731 0 0 1 .736.733v307.39a.73.73 0 0 1-.736.733Z" fill="#3F3D56"/><path d="M407.492 134.221a.739.739 0 0 1-.52-.215l-35.428-35.288a.731.731 0 0 1 .522-1.248c.194-.001.381.075.519.21l35.428 35.29a.729.729 0 0 1-.112 1.127.734.734 0 0 1-.409.124ZM407.492 195.313a.737.737 0 0 1-.722-.876.738.738 0 0 1 .202-.376l59.329-59.098a.739.739 0 0 1 1.253.52.737.737 0 0 1-.212.517l-59.329 59.098a.752.752 0 0 1-.521.215Z" fill="#3F3D56"/><path d="M159.787 239.944c11.743-2.644 25.047 6.505 25.459 18.788.116 3.455-.901 7.083-3.569 9.434-2.204 1.94-5.483 2.919-8.331 1.97-5.481-1.825-5.774-9.433-2.834-13.496 3.982-5.502 11.869-6.442 18.128-5.787 7.651.8 14.923 4.142 21.026 8.722 12.216 9.17 19.996 23.224 26.292 36.803a185.017 185.017 0 0 1 14.93 49.376 1.114 1.114 0 0 0 1.369.748 1.127 1.127 0 0 0 .751-1.363 187.44 187.44 0 0 0-14.157-47.699c-6.592-14.716-14.904-29.98-28.126-39.801-6.591-4.895-14.374-8.302-22.611-9.03-6.935-.614-15.146.848-19.458 6.855-3.402 4.739-3.057 12.616 2.207 15.917 2.894 1.814 6.571 1.602 9.576.192a12.22 12.22 0 0 0 6.467-7.985c1.869-6.822-.969-14.201-5.835-19.077a24.573 24.573 0 0 0-17.261-7.23 21.826 21.826 0 0 0-4.64.551c-1.386.312-.767 2.424.617 2.112Z" fill="#CCC"/><path d="m216.418 375.032-7.298-12.41 8.999-5.25 7.297 12.41a5.174 5.174 0 0 1 .545 3.938 5.193 5.193 0 0 1-2.409 3.169 5.228 5.228 0 0 1-7.134-1.857ZM192.29 349.236c3.544 0 6.417-2.862 6.417-6.392 0-3.53-2.873-6.392-6.417-6.392-3.544 0-6.418 2.862-6.418 6.392 0 3.53 2.874 6.392 6.418 6.392ZM244.652 375.032l-7.297-12.41 8.997-5.25 7.298 12.41a5.178 5.178 0 0 1 .542 3.936 5.197 5.197 0 0 1-2.409 3.166 5.225 5.225 0 0 1-7.131-1.852Z" fill="#FD9200"/><path d="M193.509 355.722a13.574 13.574 0 0 1 3.998-9.601 13.683 13.683 0 0 1 9.638-3.983h43.168a5.782 5.782 0 0 1 4.073 1.684 5.732 5.732 0 0 1 1.69 4.058v4.893a16.518 16.518 0 0 1-4.866 11.684 16.648 16.648 0 0 1-11.731 4.848h-32.334a13.683 13.683 0 0 1-9.638-3.983 13.573 13.573 0 0 1-3.998-9.6Z" fill="#3F3D56"/><path d="M203.464 376.633V362.25h10.428v14.383c0 1.377-.55 2.698-1.528 3.672a5.225 5.225 0 0 1-7.373 0 5.182 5.182 0 0 1-1.527-3.672ZM233.723 376.633V362.25h10.428v14.383a5.186 5.186 0 0 1-1.525 3.676 5.218 5.218 0 0 1-3.689 1.523 5.219 5.219 0 0 1-4.819-3.21 5.167 5.167 0 0 1-.395-1.989Z" fill="#3F3D56"/><path d="M276.149 319.73a6.434 6.434 0 0 1 9.014-.971 6.373 6.373 0 0 1 .993 8.976l-10.548 13.083-10.007-8.006 10.548-13.082Z" fill="#FD9200"/><path d="m250.74 345.501 8.451-10.48a12.407 12.407 0 0 1 17.375-1.89l2.641 2.113a14.654 14.654 0 0 1 2.261 20.635l-6.962 8.635a4.648 4.648 0 0 1-6.505.708l-16.55-13.241a4.605 4.605 0 0 1-.711-6.48Z" fill="#3F3D56"/><path d="M277.405 318.173a4.405 4.405 0 0 1 2.961-1.617 4.416 4.416 0 0 1 4.348 2.256 4.386 4.386 0 0 1-.429 4.864l-11.804 14.64-6.88-5.504 11.804-14.639ZM260.495 342.644l18.137 14.509a6.374 6.374 0 0 1 .972 8.976 6.438 6.438 0 0 1-9.009.992l-18.137-14.51 8.037-9.967Z" fill="#3F3D56"/><path d="M280.394 366.613c.936-1.161 1.17-2.522.522-3.041-.648-.518-1.932.004-2.868 1.165-.936 1.161-1.17 2.522-.522 3.041.647.518 1.931-.004 2.868-1.165Z" fill="#FD9200"/><path d="M460.313 382.864H-48.264a.735.735 0 0 1-.736-.733.735.735 0 0 1 .736-.733h508.577a.737.737 0 0 1 .736.733.73.73 0 0 1-.736.733Z" fill="#CCC"/></g><defs><clipPath id="clip0_3_3"><path fill="#fff" transform="translate(-49)" d="M0 0h546v383H0z"/></clipPath></defs></svg>