<svg width="203" height="72" fill="none" xmlns="http://www.w3.org/2000/svg"><g clip-path="url('#clip0_5_22')"><path d="m128.057 77.008-32.345-.916s2.434-14.527-5.377-18.558c-5.324-2.75-10.05-15.594-8.705-24.333a15 15 0 0 1 .057-.347c.681-3.913 2.629-6.943 6.353-7.766 12.038-2.659 20.629-.597 20.629-.597s1.989.025 4.936.576c.105.019.21.04.315.062 8.342 1.63 23.761 7.435 24.429 28.047.919 28.32-10.292 23.828-10.292 23.828v.004Z" fill="#3F3D56"/><path d="M113.605 25.07a11.878 11.878 0 0 1-1.004 4.341 11.596 11.596 0 0 1-6.524 6.222c-8.793 3.357-19.052.028-24.242-3.582-.02.114-.432 2.278-.45 2.395 2.298 1.568 13.543 3.08 15.675 3.08 3.24 0 6.358-.536 9.131-1.596a11.918 11.918 0 0 0 6.7-6.394 12.17 12.17 0 0 0 1.029-4.407 7.776 7.776 0 0 0-.315-.062v.003Z" fill="#FD9200"/><path d="m115.996 26.95-5.155-12.93s6.188-10.58 1.326-11.754c-4.863-1.176-9.871 5.142-9.871 5.142S93.014 4.175 89.48 6.82c0 0-5.893-8.23-9.428-6.613-3.536 1.617 1.258 13.266 1.258 13.266s-7.297 10.685-1.699 16.855c5.599 6.172 26.665 11.168 36.387-3.38l-.002.003ZM127.053 69.27c1.756.78 3.589 1.573 5.51 1.498 1.92-.076 3.939-1.31 4.238-3.202.155-.978-.151-2.025.224-2.941.505-1.231 2.133-1.708 3.397-1.286 1.267.422 2.195 1.512 2.862 2.663 1.248 2.157 1.747 4.989.409 7.091-1.159 1.822-3.358 2.647-5.402 3.354-2.724.942-5.765 1.874-8.405.718-2.654-1.162-4.101-4.521-3.118-7.241" fill="#3F3D56"/><path d="M98.011 21.139s-3.172-1.266-5.232.317l2.38 3.639 2.855-3.954-.002-.002Z" fill="#FD9200"/><path d="m81.358 37.747 5.868 31.165s-8.881 9.017 2.537 8.858c11.419-.158 8.088-6.01 8.088-6.01l-3.648-27.052" fill="#3F3D56"/><path d="M89.475 78c-3.093 0-4.963-.707-5.561-2.105-1.091-2.544 2.46-6.423 3.067-7.061l-3.945-23.298.45-.075 3.985 23.526-.083.082c-.04.04-4.1 4.207-3.054 6.646.537 1.254 2.36 1.868 5.427 1.824 4.264-.059 7.011-.95 7.949-2.576.843-1.464-.048-3.078-.057-3.094l-.021-.039-.007-.043-2.537-18.825.452-.061 2.533 18.783c.151.285.94 1.93.037 3.502-1.036 1.802-3.843 2.748-8.342 2.81h-.29l-.003.004Z" fill="#2F2E41"/><path d="m96.265 37.747 5.868 31.165s-8.881 9.017 2.538 8.858c11.419-.158 8.088-6.01 8.088-6.01l-3.649-27.052" fill="#3F3D56"/><path d="M104.383 78c-3.093 0-4.963-.707-5.562-2.105-1.09-2.54 2.453-6.413 3.065-7.059l-2.357-12.54.45-.085 2.401 12.773-.084.085c-.042.04-4.102 4.207-3.055 6.646.538 1.254 2.362 1.87 5.427 1.824 4.266-.059 7.016-.95 7.951-2.58.844-1.469-.05-3.074-.059-3.09l-.023-.039-3.653-27.094.453-.062 3.641 27.01c.151.285.94 1.93.037 3.502-1.036 1.802-3.843 2.748-8.342 2.81h-.29V78Z" fill="#2F2E41"/></g><defs><clipPath id="clip0_5_22"><path fill="#fff" d="M0 0h203v78H0z"/></clipPath></defs></svg>