<svg width="42" height="42" fill="none" xmlns="http://www.w3.org/2000/svg"><path fill-rule="evenodd" clip-rule="evenodd" d="M21.017 0C9.395 0 0 9.429 0 21.093c0 9.324 6.02 17.216 14.371 20.01 1.044.21 1.427-.454 1.427-1.013 0-.489-.035-2.165-.035-3.911C9.917 37.436 8.7 33.665 8.7 33.665c-.94-2.445-2.331-3.073-2.331-3.073-1.914-1.292.139-1.292.139-1.292 2.123.14 3.236 2.165 3.236 2.165 1.88 3.212 4.906 2.305 6.124 1.746.174-1.362.731-2.305 1.323-2.829-4.663-.489-9.57-2.305-9.57-10.407 0-2.305.835-4.19 2.158-5.657-.209-.524-.94-2.69.209-5.588 0 0 1.774-.558 5.776 2.165a20.277 20.277 0 0 1 5.254-.698c1.775 0 3.584.245 5.255.699 4.001-2.724 5.776-2.166 5.776-2.166 1.149 2.899.417 5.064.209 5.588 1.357 1.467 2.157 3.352 2.157 5.657 0 8.102-4.906 9.883-9.604 10.407.766.664 1.427 1.92 1.427 3.911 0 2.829-.035 5.099-.035 5.797 0 .559.383 1.223 1.427 1.013 8.351-2.794 14.37-10.686 14.37-20.01C42.035 9.429 32.606 0 21.018 0Z" fill="#24292F"/></svg>