<svg width="99" height="39" fill="none" xmlns="http://www.w3.org/2000/svg"><g clip-path="url('#clip0_5_18')"><path d="M16.35 28.83c-.03.11-.146.163-.34.163h-3.747a.762.762 0 0 1-.608-.288l-6.189-7.823-1.719 1.63v6.048a.363.363 0 0 1-.25.4.373.373 0 0 1-.169.015H.42a.373.373 0 0 1-.404-.247A.363.363 0 0 1 0 28.56V.986a.363.363 0 0 1 .25-.4.374.374 0 0 1 .17-.015h2.908a.374.374 0 0 1 .404.248.363.363 0 0 1 .015.167v16.98l7.416-7.426a.874.874 0 0 1 .608-.294h3.88a.33.33 0 0 1 .335.21.352.352 0 0 1-.043.379L8.09 18.339l8.175 10.053a.39.39 0 0 1 .085.439Zm15.19.145h-2.909c-.31 0-.462-.138-.462-.415v-.6a7.813 7.813 0 0 1-4.761 1.376 6.894 6.894 0 0 1-4.58-1.611 5.415 5.415 0 0 1-1.432-1.914 5.364 5.364 0 0 1-.463-2.337c0-2.73 1.713-4.58 5.139-5.55a37.722 37.722 0 0 1 6.11-1.004 3.256 3.256 0 0 0-.89-2.72 3.325 3.325 0 0 0-1.238-.807 3.354 3.354 0 0 0-1.468-.195 8.558 8.558 0 0 0-4.804 1.665c-.25.145-.431.115-.547-.078l-1.518-2.128c-.14-.168-.097-.36.127-.601a11.814 11.814 0 0 1 6.742-2.213 8.132 8.132 0 0 1 4.567 1.28c1.859 1.227 2.786 3.187 2.782 5.881V28.56a.363.363 0 0 1-.097.301.373.373 0 0 1-.298.114Zm-3.37-8.718c-2.754.28-4.637.643-5.649 1.088-1.373.581-1.996 1.415-1.87 2.501a2.084 2.084 0 0 0 .929 1.48 3.589 3.589 0 0 0 1.822.649 5.82 5.82 0 0 0 2.536-.243 5.775 5.775 0 0 0 2.183-1.302l.049-4.173Zm21.026 15.957c-1.542 1.572-3.717 2.357-6.523 2.357a9.433 9.433 0 0 1-4.634-1.202c-.31-.199-.674-.457-1.1-.776a28.363 28.363 0 0 1-1.475-1.202.431.431 0 0 1-.043-.602l1.98-1.96a.462.462 0 0 1 .34-.126.416.416 0 0 1 .298.126c1.567 1.552 3.104 2.333 4.592 2.333 3.397 0 5.096-1.751 5.096-5.255v-2.182a8.012 8.012 0 0 1-5.266 1.629 7.645 7.645 0 0 1-3.587-.734 7.563 7.563 0 0 1-2.82-2.314 10.841 10.841 0 0 1-2.042-6.716c-.073-2.32.608-4.6 1.944-6.506a7.381 7.381 0 0 1 2.8-2.435 7.466 7.466 0 0 1 3.644-.776 8.52 8.52 0 0 1 5.308 1.63v-.836a.37.37 0 0 1 .25-.403.38.38 0 0 1 .17-.018h2.909a.38.38 0 0 1 .409.25.37.37 0 0 1 .016.17v18.64c.012 3.034-.743 5.337-2.266 6.909Zm-1.47-20.01c-.704-1.78-2.324-2.67-4.858-2.67-3.284 0-4.926 2.029-4.926 6.085 0 2.257.547 3.899 1.64 4.925a4.32 4.32 0 0 0 3.164 1.203c2.636 0 4.306-.89 5.01-2.67l-.03-6.873Zm21.264 20.01c-1.53 1.568-3.7 2.353-6.51 2.357a9.45 9.45 0 0 1-4.635-1.202 16.65 16.65 0 0 1-1.093-.776 25.97 25.97 0 0 1-1.476-1.202.422.422 0 0 1-.128-.457.422.422 0 0 1 .085-.145l1.98-1.96a.451.451 0 0 1 .335-.126.408.408 0 0 1 .297.126c1.573 1.552 3.104 2.333 4.592 2.333 3.401 0 5.102-1.751 5.102-5.255v-2.182a8.036 8.036 0 0 1-5.272 1.629 7.632 7.632 0 0 1-3.578-.737 7.55 7.55 0 0 1-2.812-2.311 10.8 10.8 0 0 1-2.022-6.716 10.745 10.745 0 0 1 1.937-6.506 7.393 7.393 0 0 1 2.801-2.434 7.479 7.479 0 0 1 3.643-.777 8.563 8.563 0 0 1 5.315 1.63v-.836a.37.37 0 0 1 .25-.403.38.38 0 0 1 .169-.018h2.91a.38.38 0 0 1 .313.108.373.373 0 0 1 .105.313v18.639c-.008 3.034-.777 5.337-2.308 6.909Zm-1.451-20.01c-.705-1.78-2.325-2.67-4.86-2.67-3.32-.02-4.98 1.999-4.98 6.056 0 2.256.55 3.898 1.646 4.924.416.404.91.719 1.453.926a4.292 4.292 0 0 0 1.706.276c2.644 0 4.316-.89 5.017-2.67l.018-6.842Zm10.203 12.771H74.84a.38.38 0 0 1-.407-.247.37.37 0 0 1-.018-.168V.986a.37.37 0 0 1 .255-.4.38.38 0 0 1 .17-.015h2.903a.374.374 0 0 1 .41.246.363.363 0 0 1 .016.17V28.56a.363.363 0 0 1-.107.314.372.372 0 0 1-.319.101Zm21.203-8.466a.371.371 0 0 1-.255.4.38.38 0 0 1-.17.015H84.83a5.315 5.315 0 0 0 1.768 3.422 6.498 6.498 0 0 0 4.342 1.479 7.12 7.12 0 0 0 4.167-1.293c.255-.169.468-.169.607 0l1.98 2.002c.225.223.225.415 0 .601a11.472 11.472 0 0 1-7.033 2.255 9.805 9.805 0 0 1-3.88-.684 9.726 9.726 0 0 1-3.287-2.154 9.73 9.73 0 0 1-2.124-3.285 9.654 9.654 0 0 1-.652-3.846 9.538 9.538 0 0 1 .666-3.736 9.61 9.61 0 0 1 2.074-3.19 8.729 8.729 0 0 1 3.009-1.982 8.801 8.801 0 0 1 3.562-.604 8.622 8.622 0 0 1 3.526.657 8.546 8.546 0 0 1 2.943 2.03 9.005 9.005 0 0 1 2.01 3.23A8.934 8.934 0 0 1 99 19.59l-.055.92Zm-5.52-6.109a4.998 4.998 0 0 0-3.456-1.292 4.924 4.924 0 0 0-3.329 1.25 5.541 5.541 0 0 0-1.822 3.253h10.15a4.176 4.176 0 0 0-.413-1.774 4.217 4.217 0 0 0-1.13-1.437Z" fill="#20BEFF"/></g><defs><clipPath id="clip0_5_18"><path fill="#fff" transform="translate(0 .571)" d="M0 0h99v38H0z"/></clipPath></defs></svg>