<svg width="231" height="32" fill="none" xmlns="http://www.w3.org/2000/svg"><path d="M4.2 31c-1.52 0-2.6-.293-3.24-.88-.613-.613-.92-1.507-.92-2.68 0-.347.013-.893.04-1.64.053-.773.12-1.68.2-2.72.08-1.04.16-2.173.24-3.4.107-1.227.213-2.48.32-3.76.133-1.573.24-2.92.32-4.04.107-1.147.187-2.12.24-2.92.053-.827.093-1.507.12-2.04.053-.56.08-1.04.08-1.44.027-.427.04-.813.04-1.16.027-.347.04-.72.04-1.12 0-.213.067-.36.2-.44a.64.64 0 0 1 .4-.16c.693 0 1.453-.013 2.28-.04l2.48-.16a80.305 80.305 0 0 1 2.4-.12c.773-.053 1.453-.08 2.04-.08 1.707 0 3.173.213 4.4.64 1.227.4 2.213 1 2.96 1.8.773.773 1.333 1.72 1.68 2.84.373 1.12.56 2.4.56 3.84a16.24 16.24 0 0 1-.64 4.56c-.4 1.44-1.04 2.72-1.92 3.84-.88 1.12-2.013 2.013-3.4 2.68-1.387.667-3.04 1-4.96 1-1.147 0-2.12-.12-2.92-.36l-.56 7.36c-.027.213-.08.373-.16.48-.08.08-.24.12-.48.12H4.2Zm6.48-22.8a9.43 9.43 0 0 0-1.16.08c-.427.027-.88.067-1.36.12-.053 1.12-.12 2.48-.2 4.08-.08 1.6-.187 3.28-.32 5.04.4.107.787.187 1.16.24.4.027.76.04 1.08.04.933 0 1.68-.213 2.24-.64.587-.453 1.04-1 1.36-1.64a6.74 6.74 0 0 0 .64-2c.107-.693.16-1.293.16-1.8 0-1.147-.267-2.013-.8-2.6-.507-.613-1.44-.92-2.8-.92Zm21.716 23.2c-1.174 0-2.347-.147-3.52-.44a8.507 8.507 0 0 1-3.12-1.52c-.907-.72-1.654-1.68-2.24-2.88-.587-1.2-.88-2.707-.88-4.52 0-.667.053-1.467.16-2.4.106-.933.306-1.893.6-2.88.32-.987.746-1.96 1.28-2.92.56-.987 1.28-1.867 2.16-2.64.88-.773 1.946-1.4 3.2-1.88 1.253-.48 2.746-.72 4.48-.72 1.386 0 2.56.16 3.52.48.96.32 1.733.76 2.32 1.32a4.733 4.733 0 0 1 1.28 1.88c.266.72.4 1.493.4 2.32 0 1.227-.254 2.267-.76 3.12a6.766 6.766 0 0 1-1.92 2.16c-.774.56-1.64 1-2.6 1.32-.96.32-1.907.573-2.84.76-.934.16-1.8.267-2.6.32-.774.027-1.374.04-1.8.04 0 .507.066 1.013.2 1.52.16.48.386.907.68 1.28.293.373.68.68 1.16.92.48.24 1.066.36 1.76.36.693 0 1.226-.107 1.6-.32.4-.24.72-.493.96-.76.24-.293.44-.547.6-.76a.872.872 0 0 1 .72-.36c.133 0 .36.04.68.12.346.053.693.187 1.04.4.346.213.653.507.92.88.266.373.4.853.4 1.44 0 .773-.24 1.44-.72 2s-1.107 1.013-1.88 1.36c-.747.347-1.587.6-2.52.76-.934.16-1.84.24-2.72.24Zm.76-17.48c-.587 0-1.094.173-1.52.52-.4.32-.747.733-1.04 1.24a7.852 7.852 0 0 0-.64 1.68c-.134.613-.24 1.2-.32 1.76 1.653-.027 2.986-.307 4-.84 1.04-.533 1.56-1.293 1.56-2.28 0-.533-.174-1.013-.52-1.44-.32-.427-.827-.64-1.52-.64Zm19.889.48c-.08 1.013-.174 2.013-.28 3-.08.987-.16 1.92-.24 2.8a171.9 171.9 0 0 0-.2 2.36c-.027.693-.04 1.227-.04 1.6 0 .693.08 1.16.24 1.4.16.213.426.32.8.32.293 0 .546-.053.76-.16.213-.107.413-.227.6-.36.186-.133.346-.253.48-.36a.919.919 0 0 1 .52-.16c.186 0 .36.107.52.32.16.213.24.707.24 1.48 0 1.467-.4 2.627-1.2 3.48-.8.853-2.174 1.28-4.12 1.28-1.92 0-3.347-.44-4.28-1.32-.907-.907-1.36-2.28-1.36-4.12 0-.4.013-.867.04-1.4a445.894 445.894 0 0 0 .48-5.4c.133-1.28.266-2.867.4-4.76h-2.12c-.214 0-.347-.04-.4-.12a1.897 1.897 0 0 1-.04-.44l.12-2.04c.026-.347.066-.68.12-1 .08-.347.213-.653.4-.92.213-.267.506-.48.88-.64.373-.16.866-.24 1.48-.24.186-.48.4-1.053.64-1.72s.48-1.307.72-1.92c.24-.64.466-1.173.68-1.6.24-.427.453-.64.64-.64h1.16c1.12 0 1.893.347 2.32 1.04.426.693.64 1.52.64 2.48 0 .533-.04 1.32-.12 2.36h4.2c.426 0 .64.187.64.56l-.16 2.16c-.054.8-.28 1.453-.68 1.96-.374.48-1.16.72-2.36.72h-2.12ZM72.82 25.16c1.094 0 2.014-.16 2.76-.48.774-.32 1.427-.68 1.96-1.08.534-.4 1-.76 1.4-1.08.427-.32.854-.48 1.28-.48.534 0 .8.4.8 1.2 0 .427-.053.947-.16 1.56a31.9 31.9 0 0 1-.44 2c-.106.453-.373.947-.8 1.48-.4.533-.96 1.04-1.68 1.52-.72.453-1.613.84-2.68 1.16-1.04.293-2.24.44-3.6.44-1.36 0-2.72-.2-4.08-.6a9.302 9.302 0 0 1-3.64-2.04c-1.066-.96-1.933-2.253-2.6-3.88-.666-1.627-1-3.667-1-6.12 0-.88.054-1.893.16-3.04a22.63 22.63 0 0 1 .72-3.6 18.78 18.78 0 0 1 1.44-3.6c.64-1.2 1.454-2.267 2.44-3.2.987-.933 2.187-1.68 3.6-2.24 1.44-.587 3.147-.88 5.12-.88 1.574 0 2.934.187 4.08.56 1.174.373 2.134.893 2.88 1.56.774.64 1.334 1.4 1.68 2.28.374.88.56 1.813.56 2.8 0 1.707-.506 2.96-1.52 3.76-.986.773-2.4 1.16-4.24 1.16-.586 0-.96-.04-1.12-.12-.133-.107-.2-.307-.2-.6-.026-.907-.053-1.693-.08-2.36-.026-.667-.12-1.213-.28-1.64-.16-.453-.413-.773-.76-.96-.32-.213-.773-.32-1.36-.32-.853 0-1.586.187-2.2.56a5.047 5.047 0 0 0-1.52 1.4c-.4.56-.733 1.2-1 1.92a20.6 20.6 0 0 0-.6 2.2 21.794 21.794 0 0 0-.28 2.16c-.026.693-.04 1.293-.04 1.8 0 2.453.4 4.2 1.2 5.24.827 1.04 2.094 1.56 3.8 1.56Zm16.928 6.2c-1.654 0-2.84-.44-3.56-1.32-.72-.88-1.08-2.333-1.08-4.36 0-.32.013-.72.04-1.2.053-.48.106-1.093.16-1.84.08-.773.173-1.72.28-2.84.106-1.12.213-2.48.32-4.08.133-1.6.266-3.48.4-5.64.16-2.16.32-4.667.48-7.52.026-.587.093-.933.2-1.04.08-.08.293-.12.64-.12h1.56c.8 0 1.466.093 2 .28.533.187.96.44 1.28.76.32.32.546.693.68 1.12.133.4.2.827.2 1.28 0 .533-.04 1.307-.12 2.32-.054.987-.134 2.107-.24 3.36-.107 1.253-.214 2.56-.32 3.92-.107 1.36-.214 2.667-.32 3.92a573.22 573.22 0 0 0-.28 3.32c-.054.987-.08 1.733-.08 2.24 0 .693.12 1.187.36 1.48.266.293.546.507.84.64.293.107.56.187.8.24.266.027.4.107.4.24 0 .587-.067 1.173-.2 1.76a4.375 4.375 0 0 1-.72 1.56c-.347.453-.827.827-1.44 1.12-.587.267-1.347.4-2.28.4Zm6.23-5.28c0-2.4 1.08-4.28 3.24-5.64 2.16-1.36 5.347-2.093 9.56-2.2.027-.293.04-.533.04-.72.027-.213.04-.467.04-.76 0-.853-.16-1.533-.48-2.04-.32-.507-.987-.76-2-.76-.56 0-1.013.08-1.36.24-.347.16-.627.387-.84.68-.213.267-.387.6-.52 1s-.253.84-.36 1.32c-.053.24-.173.4-.36.48-.187.053-.48.08-.88.08-2.72 0-4.08-1.027-4.08-3.08 0-.827.187-1.613.56-2.36.4-.747.973-1.387 1.72-1.92.773-.56 1.733-1 2.88-1.32 1.147-.32 2.48-.48 4-.48 2.96 0 5.107.613 6.44 1.84 1.333 1.227 2 2.96 2 5.2 0 .293-.04.827-.12 1.6a44.921 44.921 0 0 1-.24 2.4c-.08.827-.16 1.613-.24 2.36-.053.747-.08 1.267-.08 1.56 0 .667.12 1.147.36 1.44.24.267.507.453.8.56.32.107.6.187.84.24.24.053.36.187.36.4 0 .587-.08 1.187-.24 1.8a4.891 4.891 0 0 1-.8 1.68c-.347.507-.84.92-1.48 1.24-.613.32-1.373.48-2.28.48-1.28 0-2.24-.307-2.88-.92-.64-.613-1.067-1.467-1.28-2.56-.64.933-1.48 1.747-2.52 2.44-1.013.693-2.347 1.04-4 1.04-.8 0-1.56-.093-2.28-.28a4.98 4.98 0 0 1-1.84-.92c-.507-.427-.92-.973-1.24-1.64-.293-.693-.44-1.52-.44-2.48Zm12.44-4.56c-.693 0-1.373.053-2.04.16a7.102 7.102 0 0 0-1.8.52 3.27 3.27 0 0 0-1.24.88c-.32.373-.48.827-.48 1.36 0 .613.187 1.04.56 1.28.4.24.827.36 1.28.36a3.17 3.17 0 0 0 1.28-.28 3.1 3.1 0 0 0 1.12-.84c.347-.4.64-.88.88-1.44.24-.56.387-1.227.44-2ZM129.038 8.6c2.267 0 3.933.453 5 1.36 1.067.88 1.6 2.013 1.6 3.4 0 1.173-.373 2.067-1.12 2.68-.72.613-1.773.92-3.16.92-.373 0-.627-.04-.76-.12-.133-.08-.2-.227-.2-.44 0-.24-.027-.507-.08-.8a2.016 2.016 0 0 0-.28-.88c-.133-.293-.36-.533-.68-.72-.293-.187-.72-.28-1.28-.28-.747 0-1.347.187-1.8.56-.453.347-.68.787-.68 1.32 0 .56.227 1.013.68 1.36.48.32 1.067.627 1.76.92.72.293 1.493.6 2.32.92a8.854 8.854 0 0 1 2.28 1.2 6.07 6.07 0 0 1 1.76 1.92c.48.747.72 1.72.72 2.92 0 1.92-.68 3.493-2.04 4.72-1.36 1.227-3.4 1.84-6.12 1.84-.747 0-1.613-.067-2.6-.2-.96-.107-1.88-.28-2.76-.52-.88-.267-1.627-.613-2.24-1.04-.587-.427-.88-.96-.88-1.6 0-.24.04-.533.12-.88.107-.347.253-.68.44-1a3.48 3.48 0 0 1 .72-.8c.293-.24.64-.36 1.04-.36.32 0 .613.08.88.24.267.16.573.333.92.52.373.16.827.32 1.36.48.533.16 1.24.24 2.12.24.667 0 1.253-.08 1.76-.24.533-.16.8-.52.8-1.08 0-.507-.213-.907-.64-1.2-.427-.32-.973-.613-1.64-.88a71.307 71.307 0 0 0-2.12-.84 10.013 10.013 0 0 1-2.12-1.24 6.288 6.288 0 0 1-1.6-1.92c-.427-.8-.64-1.827-.64-3.08 0-1.36.267-2.507.8-3.44.56-.96 1.267-1.733 2.12-2.32.88-.587 1.867-1 2.96-1.24 1.093-.267 2.187-.4 3.28-.4Zm18.789 0c2.267 0 3.934.453 5 1.36 1.067.88 1.6 2.013 1.6 3.4 0 1.173-.373 2.067-1.12 2.68-.72.613-1.773.92-3.16.92-.373 0-.626-.04-.76-.12-.133-.08-.2-.227-.2-.44 0-.24-.026-.507-.08-.8a2.003 2.003 0 0 0-.28-.88c-.133-.293-.36-.533-.68-.72-.293-.187-.72-.28-1.28-.28-.746 0-1.346.187-1.8.56-.453.347-.68.787-.68 1.32 0 .56.227 1.013.68 1.36.48.32 1.067.627 1.76.92.72.293 1.494.6 2.32.92a8.854 8.854 0 0 1 2.28 1.2 6.07 6.07 0 0 1 1.76 1.92c.48.747.72 1.72.72 2.92 0 1.92-.68 3.493-2.04 4.72-1.36 1.227-3.4 1.84-6.12 1.84-.746 0-1.613-.067-2.6-.2-.96-.107-1.88-.28-2.76-.52-.88-.267-1.626-.613-2.24-1.04-.586-.427-.88-.96-.88-1.6 0-.24.04-.533.12-.88.107-.347.254-.68.44-1 .214-.32.454-.587.72-.8.294-.24.64-.36 1.04-.36.32 0 .614.08.88.24.267.16.574.333.92.52.374.16.827.32 1.36.48.534.16 1.24.24 2.12.24.667 0 1.254-.08 1.76-.24.534-.16.8-.52.8-1.08 0-.507-.213-.907-.64-1.2-.426-.32-.973-.613-1.64-.88a70.238 70.238 0 0 0-2.12-.84 10.038 10.038 0 0 1-2.12-1.24 6.288 6.288 0 0 1-1.6-1.92c-.426-.8-.64-1.827-.64-3.08 0-1.36.267-2.507.8-3.44.56-.96 1.267-1.733 2.12-2.32.88-.587 1.867-1 2.96-1.24 1.094-.267 2.187-.4 3.28-.4ZM161.416 31c-.826 0-1.506-.08-2.04-.24-.506-.187-.92-.44-1.24-.76a2.91 2.91 0 0 1-.64-1.16 7.64 7.64 0 0 1-.16-1.64c0-.4.014-.96.04-1.68.054-.747.134-1.76.24-3.04.107-1.307.227-2.947.36-4.92.16-2 .347-4.467.56-7.4.027-.587.094-.933.2-1.04.08-.08.294-.12.64-.12h1.56c.827 0 1.494.08 2 .24.534.16.947.4 1.24.72.32.32.534.707.64 1.16.134.453.2.96.2 1.52 0 .4-.026 1-.08 1.8-.053.8-.133 1.893-.24 3.28-.08 1.36-.2 3.067-.36 5.12-.16 2.027-.36 4.48-.6 7.36-.026.32-.093.533-.2.64-.106.107-.333.16-.68.16h-1.44Zm-2.84-26.72c0-1.067.387-1.907 1.16-2.52.774-.613 1.814-.92 3.12-.92 1.147 0 1.974.24 2.48.72.534.453.8 1.067.8 1.84 0 .987-.373 1.813-1.12 2.48-.72.64-1.786.96-3.2.96-2.16 0-3.24-.853-3.24-2.56ZM185.066 31c-.826 0-1.506-.08-2.04-.24-.506-.187-.92-.44-1.24-.76a2.91 2.91 0 0 1-.64-1.16 7.64 7.64 0 0 1-.16-1.64v-1.04a367.68 367.68 0 0 0 .32-4.32c.107-1.173.227-2.733.36-4.68h-4.84c-.053.8-.12 1.667-.2 2.6a1110.192 1110.192 0 0 1-.48 5.6 126.38 126.38 0 0 1-.16 2.4 42.37 42.37 0 0 1-.16 1.72c-.026.453-.04.693-.04.72-.026.32-.093.533-.2.64-.106.107-.333.16-.68.16h-1.44c-.72 0-1.333-.053-1.84-.16-.48-.107-.88-.307-1.2-.6-.293-.293-.506-.707-.64-1.24-.133-.533-.2-1.227-.2-2.08.08-.987.16-2.027.24-3.12.054-.933.12-1.973.2-3.12.08-1.173.174-2.347.28-3.52h-1.92c-.293 0-.44-.147-.44-.44l.12-2.16c.027-.32.067-.64.12-.96.08-.347.2-.64.36-.88.187-.267.454-.48.8-.64.347-.187.8-.293 1.36-.32l.16-1.6c.16-1.733.507-3.187 1.04-4.36.56-1.2 1.267-2.16 2.12-2.88a7.912 7.912 0 0 1 3.08-1.6c1.2-.32 2.547-.48 4.04-.48 1.467 0 2.72.133 3.76.4 1.04.24 1.894.587 2.56 1.04.667.453 1.147.987 1.44 1.6.294.587.44 1.213.44 1.88 0 1.387-.44 2.373-1.32 2.96-.853.587-2.013.88-3.48.88-.4 0-.68-.027-.84-.08-.133-.08-.2-.24-.2-.48 0-.427-.026-.813-.08-1.16-.026-.373-.12-.68-.28-.92-.16-.24-.4-.427-.72-.56-.32-.133-.746-.2-1.28-.2-.666 0-1.226.16-1.68.48-.453.32-.826.747-1.12 1.28a6.554 6.554 0 0 0-.68 1.76c-.16.667-.293 1.347-.4 2.04h7.24c.8 0 1.454.093 1.96.28.507.16.907.4 1.2.72.294.32.494.707.6 1.16.134.427.2.92.2 1.48 0 .4-.013.853-.04 1.36a101.8 101.8 0 0 1-.16 2.32l-.32 4.2c-.133 1.733-.32 4.04-.56 6.92-.026.32-.093.533-.2.64-.106.107-.333.16-.68.16h-1.44Zm15.806.4c-1.173 0-2.346-.147-3.52-.44a8.516 8.516 0 0 1-3.12-1.52c-.906-.72-1.653-1.68-2.24-2.88-.586-1.2-.88-2.707-.88-4.52 0-.667.054-1.467.16-2.4.107-.933.307-1.893.6-2.88a16.5 16.5 0 0 1 1.28-2.92c.56-.987 1.28-1.867 2.16-2.64.88-.773 1.947-1.4 3.2-1.88 1.254-.48 2.747-.72 4.48-.72 1.387 0 2.56.16 3.52.48.96.32 1.734.76 2.32 1.32a4.724 4.724 0 0 1 1.28 1.88c.267.72.4 1.493.4 2.32 0 1.227-.253 2.267-.76 3.12a6.766 6.766 0 0 1-1.92 2.16c-.773.56-1.64 1-2.6 1.32-.96.32-1.906.573-2.84.76-.933.16-1.8.267-2.6.32a55.67 55.67 0 0 1-1.8.04c0 .507.067 1.013.2 1.52.16.48.387.907.68 1.28.294.373.68.68 1.16.92.48.24 1.067.36 1.76.36.694 0 1.227-.107 1.6-.32.4-.24.72-.493.96-.76.24-.293.44-.547.6-.76a.873.873 0 0 1 .72-.36c.134 0 .36.04.68.12.347.053.694.187 1.04.4.347.213.654.507.92.88.267.373.4.853.4 1.44 0 .773-.24 1.44-.72 2s-1.106 1.013-1.88 1.36c-.746.347-1.586.6-2.52.76-.933.16-1.84.24-2.72.24Zm.76-17.48c-.586 0-1.093.173-1.52.52-.4.32-.746.733-1.04 1.24a7.884 7.884 0 0 0-.64 1.68c-.133.613-.24 1.2-.32 1.76 1.654-.027 2.987-.307 4-.84 1.04-.533 1.56-1.293 1.56-2.28 0-.533-.173-1.013-.52-1.44-.32-.427-.826-.64-1.52-.64Zm24.209 4.64h-.56l-.56-.08a5.165 5.165 0 0 1-.48-.16c-.133-.08-.2-.173-.2-.28 0-.347.014-.667.04-.96.027-.293.04-.6.04-.92 0-.587-.08-1.067-.24-1.44-.16-.373-.48-.56-.96-.56-.746 0-1.373.493-1.88 1.48-.48.96-.786 2.413-.92 4.36a83.446 83.446 0 0 1-.24 2.92c-.08 1.067-.16 2.107-.24 3.12-.08.987-.146 1.867-.2 2.64-.053.773-.08 1.28-.08 1.52 0 .267-.093.467-.28.6a1.01 1.01 0 0 1-.6.2h-1.44c-.826 0-1.506-.08-2.04-.24-.506-.187-.92-.44-1.24-.76a2.91 2.91 0 0 1-.64-1.16 7.64 7.64 0 0 1-.16-1.64c0-.4.014-.96.04-1.68.054-.747.134-1.76.24-3.04.107-1.307.227-2.947.36-4.92.16-2 .347-4.467.56-7.4.054-.773.334-1.16.84-1.16h1.56c.747 0 1.374.08 1.88.24.507.16.92.387 1.24.68.32.267.547.587.68.96.16.373.267.76.32 1.16a6.335 6.335 0 0 1 1.12-1.56c.454-.453.92-.813 1.4-1.08.48-.293.974-.493 1.48-.6.507-.133.974-.2 1.4-.2.507 0 1.014.093 1.52.28a4.336 4.336 0 0 1 1.44.84c.427.373.76.853 1 1.44.267.587.4 1.28.4 2.08 0 .72-.106 1.4-.32 2.04a5.61 5.61 0 0 1-.92 1.72c-.4.48-.893.867-1.48 1.16-.56.267-1.186.4-1.88.4Z" fill="#FD9200"/></svg>