<svg width="42" height="42" viewBox="0 0 42 42" fill="none" xmlns="http://www.w3.org/2000/svg">
<path fill-rule="evenodd" clip-rule="evenodd" d="M21.0174 0C9.39531 0 0 9.42853 0 21.0929C0 30.4169 6.0199 38.3094 14.3711 41.1028C15.4152 41.3128 15.7977 40.649 15.7977 40.0905C15.7977 39.6015 15.7632 37.9254 15.7632 36.179C9.91672 37.4364 8.69923 33.6646 8.69923 33.6646C7.75966 31.22 6.36751 30.5917 6.36751 30.5917C4.45394 29.2996 6.50689 29.2996 6.50689 29.2996C8.62954 29.4393 9.74335 31.4647 9.74335 31.4647C11.6221 34.6773 14.6494 33.7696 15.8674 33.2107C16.0412 31.8487 16.5983 30.9059 17.1898 30.3822C12.5268 29.8932 7.6207 28.0773 7.6207 19.9752C7.6207 17.6704 8.45531 15.7846 9.77777 14.3181C9.56911 13.7944 8.83819 11.6288 9.98685 8.73039C9.98685 8.73039 11.7615 8.17154 15.7628 10.8955C17.4759 10.4338 19.2427 10.1989 21.0174 10.197C22.792 10.197 24.601 10.4417 26.2715 10.8955C30.2733 8.17154 32.0479 8.73039 32.0479 8.73039C33.1966 11.6288 32.4652 13.7944 32.2566 14.3181C33.6139 15.7846 34.4141 17.6704 34.4141 19.9752C34.4141 28.0773 29.508 29.858 24.8101 30.3822C25.5759 31.0456 26.2367 32.3026 26.2367 34.2933C26.2367 37.1218 26.2022 39.392 26.2022 40.0901C26.2022 40.649 26.5851 41.3128 27.6288 41.1033C35.98 38.309 41.9999 30.4169 41.9999 21.0929C42.0343 9.42853 32.6046 0 21.0174 0Z" fill="#24292F"/>
</svg>
