<svg width="99" height="39" viewBox="0 0 99 39" fill="none" xmlns="http://www.w3.org/2000/svg">
<g clip-path="url(#clip0_5_18)">
<path d="M16.3502 28.8309C16.3199 28.9392 16.2045 28.9933 16.0101 28.9933H12.2627C12.1458 28.9951 12.03 28.97 11.9246 28.92C11.8192 28.8699 11.727 28.7961 11.6553 28.7047L5.46631 20.8822L3.74747 22.5116V28.5604C3.75559 28.6167 3.75034 28.6742 3.73215 28.7282C3.71396 28.7822 3.68333 28.8312 3.64267 28.8715C3.60201 28.9117 3.55244 28.9421 3.4979 28.9601C3.44335 28.9781 3.38532 28.9833 3.32839 28.9752H0.419128C0.362203 28.9833 0.30417 28.9781 0.249623 28.9601C0.195076 28.9421 0.145511 28.9117 0.104852 28.8715C0.0641932 28.8312 0.0335561 28.7822 0.0153657 28.7282C-0.00282468 28.6742 -0.00806902 28.6167 4.77859e-05 28.5604V0.986309C-0.00806902 0.929956 -0.00282468 0.872506 0.0153657 0.818506C0.0335561 0.764506 0.0641932 0.715439 0.104852 0.675188C0.145511 0.634937 0.195076 0.604608 0.249623 0.5866C0.30417 0.568592 0.362203 0.5634 0.419128 0.571436H3.32839C3.38532 0.5634 3.44335 0.568592 3.4979 0.5866C3.55244 0.604608 3.60201 0.634937 3.64267 0.675188C3.68333 0.715439 3.71396 0.764506 3.73215 0.818506C3.75034 0.872506 3.75559 0.929956 3.74747 0.986309V17.9661L11.1634 10.5404C11.2398 10.4539 11.3328 10.3832 11.4371 10.3326C11.5414 10.2821 11.6548 10.2525 11.7707 10.2458H15.6518C15.723 10.2401 15.7942 10.2575 15.8545 10.2955C15.9148 10.3335 15.9609 10.3899 15.9858 10.4562C16.0159 10.5168 16.0278 10.5847 16.0203 10.6518C16.0128 10.7189 15.9861 10.7825 15.9433 10.835L8.09011 18.3388L16.2652 28.392C16.323 28.4478 16.3621 28.5198 16.3773 28.5982C16.3925 28.6767 16.3831 28.7579 16.3502 28.8309ZM31.5404 28.9752H28.6311C28.3213 28.9752 28.1695 28.8369 28.1695 28.5604V27.9591C26.7773 28.9217 25.1045 29.4055 23.4078 29.336C21.7336 29.3709 20.1046 28.7977 18.8283 27.7246C18.2133 27.1998 17.7242 26.546 17.3964 25.8107C17.0687 25.0754 16.9104 24.2771 16.9333 23.4737C16.9333 20.7439 18.6461 18.894 22.0716 17.924C24.0767 17.4225 26.1204 17.0867 28.1816 16.9199C28.2496 16.4294 28.2048 15.93 28.0506 15.4591C27.8964 14.9881 27.6368 14.5577 27.2911 14.1999C26.9455 13.8421 26.5227 13.5662 26.0543 13.3927C25.586 13.2193 25.0841 13.1527 24.5861 13.198C22.8504 13.2545 21.1739 13.8357 19.7818 14.8635C19.5328 15.0078 19.3506 14.9778 19.2352 14.7854L17.7168 12.6569C17.5771 12.4885 17.6196 12.2961 17.8443 12.0556C19.8067 10.6463 22.1619 9.87335 24.5861 9.84296C26.2038 9.807 27.7951 10.2532 29.1534 11.1237C31.0119 12.3502 31.9392 14.3104 31.9351 17.004V28.5604C31.9425 28.6145 31.9376 28.6696 31.9207 28.7216C31.9039 28.7736 31.8755 28.8212 31.8377 28.861C31.7998 28.9007 31.7535 28.9316 31.7021 28.9514C31.6506 28.9712 31.5954 28.9793 31.5404 28.9752ZM28.1695 20.2569C25.4161 20.5375 23.5333 20.9002 22.521 21.3452C21.1484 21.9264 20.5248 22.7602 20.6504 23.8464C20.6892 24.1445 20.7923 24.4308 20.9526 24.686C21.113 24.9411 21.3268 25.1593 21.5796 25.3256C22.1148 25.7043 22.7455 25.929 23.4017 25.9749C24.2549 26.0822 25.1216 25.9992 25.9382 25.7318C26.7548 25.4644 27.5006 25.0195 28.1209 24.4297L28.1695 20.2569ZM49.1964 36.2145C47.6537 37.7858 45.4793 38.5714 42.6733 38.5714C41.0494 38.5754 39.4523 38.161 38.0391 37.3689C37.7294 37.1705 37.365 36.9119 36.9398 36.5933C36.5146 36.2746 36.0288 35.8778 35.4639 35.3907C35.3793 35.3156 35.3275 35.2109 35.3196 35.0986C35.3117 34.9864 35.3482 34.8755 35.4214 34.7895L37.4014 32.8293C37.4465 32.7866 37.4999 32.7534 37.5584 32.7317C37.6168 32.71 37.6791 32.7003 37.7415 32.7031C37.7972 32.7032 37.8522 32.7144 37.9033 32.7361C37.9545 32.7578 38.0007 32.7895 38.0391 32.8293C39.6061 34.3806 41.1427 35.1623 42.6308 35.1623C46.028 35.1623 47.7266 33.4106 47.7266 29.9072V27.7246C46.2238 28.8721 44.3561 29.45 42.4607 29.354C41.2223 29.4032 39.9906 29.1511 38.8735 28.6196C37.7564 28.0882 36.788 27.2936 36.0531 26.3056C34.6453 24.35 33.928 21.9894 34.0123 19.5895C33.9391 17.2707 34.6204 14.9901 35.9559 13.0838C36.6643 12.049 37.6283 11.2108 38.7562 10.6488C39.8841 10.0868 41.1384 9.81978 42.4 9.87302C44.3043 9.80892 46.1747 10.3831 47.7083 11.5024V10.6667C47.7005 10.6101 47.7058 10.5525 47.724 10.4983C47.7422 10.4441 47.7727 10.3948 47.8132 10.3541C47.8537 10.3134 47.9031 10.2825 47.9576 10.2637C48.012 10.245 48.0702 10.2388 48.1274 10.2458H51.0367C51.0944 10.2378 51.1532 10.2432 51.2085 10.2615C51.2637 10.2798 51.314 10.3106 51.3552 10.3514C51.3964 10.3922 51.4275 10.4419 51.446 10.4966C51.4645 10.5513 51.4699 10.6095 51.4618 10.6667V29.3059C51.474 32.3403 50.7188 34.6432 49.1964 36.2145ZM47.7266 16.2043C47.022 14.4246 45.4024 13.5347 42.8677 13.5347C39.5839 13.5347 37.942 15.563 37.942 19.6195C37.942 21.8763 38.4886 23.5177 39.5818 24.5439C39.9988 24.947 40.4946 25.2616 41.0387 25.4683C41.5828 25.6751 42.1638 25.7697 42.7462 25.7464C45.3821 25.7464 47.0524 24.8566 47.7569 23.0768L47.7266 16.2043ZM68.9903 36.2145C67.4597 37.7818 65.2894 38.5674 62.4794 38.5714C60.8555 38.5746 59.2587 38.1602 57.8452 37.3689C57.5375 37.1725 57.1731 36.9139 56.752 36.5933C56.3268 36.2746 55.8348 35.8778 55.2761 35.3907C55.2328 35.3544 55.1973 35.3099 55.1716 35.2598C55.146 35.2097 55.1307 35.155 55.1267 35.099C55.1228 35.0429 55.1302 34.9867 55.1485 34.9335C55.1669 34.8804 55.1958 34.8314 55.2335 34.7895L57.2135 32.8293C57.2575 32.7868 57.3099 32.7536 57.3673 32.7319C57.4248 32.7102 57.4862 32.7004 57.5476 32.7031C57.6033 32.7028 57.6584 32.7139 57.7096 32.7357C57.7608 32.7574 57.807 32.7893 57.8452 32.8293C59.4183 34.3806 60.9488 35.1623 62.4369 35.1623C65.8381 35.1623 67.5387 33.4106 67.5387 29.9072V27.7246C66.0333 28.8716 64.164 29.4493 62.2668 29.354C61.0313 29.4013 59.8028 29.1482 58.689 28.6167C57.5751 28.0853 56.6098 27.2918 55.8773 26.3056C54.4732 24.3491 53.7621 21.9878 53.8548 19.5895C53.7799 17.2714 54.459 14.9908 55.7923 13.0838C56.5016 12.0498 57.4657 11.2122 58.5934 10.6504C59.7211 10.0885 60.975 9.82093 62.2364 9.87302C64.1423 9.81085 66.0141 10.3847 67.5508 11.5024V10.6667C67.543 10.6101 67.5483 10.5525 67.5665 10.4983C67.5847 10.4441 67.6152 10.3948 67.6557 10.3541C67.6962 10.3134 67.7456 10.2825 67.8001 10.2637C67.8546 10.245 67.9127 10.2388 67.9699 10.2458H70.8792C70.9364 10.2388 70.9946 10.245 71.049 10.2637C71.1035 10.2825 71.1529 10.3134 71.1934 10.3541C71.2339 10.3948 71.2644 10.4441 71.2826 10.4983C71.3008 10.5525 71.3061 10.6101 71.2983 10.6667V29.3059C71.2902 32.3403 70.5208 34.6432 68.9903 36.2145ZM67.5387 16.2043C66.8342 14.4246 65.2145 13.5347 62.6798 13.5347C59.3596 13.5147 57.6994 15.5329 57.6994 19.5895C57.6994 21.8462 58.2481 23.4877 59.3454 24.5138C59.7606 24.9176 60.2552 25.2327 60.7985 25.4396C61.3417 25.6464 61.9221 25.7406 62.5037 25.7164C65.1477 25.7164 66.82 24.8265 67.5205 23.0468L67.5387 16.2043ZM77.7424 28.9752H74.8392C74.782 28.983 74.7238 28.9777 74.6691 28.9597C74.6143 28.9417 74.5645 28.9115 74.5234 28.8714C74.4823 28.8313 74.4511 28.7824 74.4321 28.7285C74.4132 28.6746 74.407 28.617 74.414 28.5604V0.986309C74.407 0.929628 74.4132 0.872101 74.4321 0.818166C74.4511 0.764232 74.4823 0.715332 74.5234 0.675241C74.5645 0.63515 74.6143 0.60494 74.6691 0.586942C74.7238 0.568943 74.782 0.563638 74.8392 0.571436H77.7424C77.7998 0.562351 77.8585 0.566756 77.9138 0.584295C77.9692 0.601834 78.0196 0.632015 78.061 0.6724C78.1024 0.712784 78.1336 0.76224 78.1521 0.816771C78.1706 0.871302 78.1759 0.929378 78.1675 0.986309V28.5604C78.1759 28.6173 78.1706 28.6754 78.1521 28.7299C78.1336 28.7844 78.1024 28.8339 78.061 28.8743C78.0196 28.9147 77.9692 28.9448 77.9138 28.9624C77.8585 28.9799 77.7998 28.9843 77.7424 28.9752ZM98.9454 20.5094C98.9524 20.5661 98.9462 20.6236 98.9273 20.6776C98.9083 20.7315 98.8771 20.7804 98.836 20.8205C98.7949 20.8606 98.7451 20.8908 98.6903 20.9088C98.6356 20.9268 98.5774 20.9321 98.5202 20.9243H84.8303C84.9695 22.2425 85.5996 23.4621 86.5977 24.3455C87.8132 25.3488 89.3586 25.8751 90.9404 25.8246C92.4322 25.8397 93.8906 25.3872 95.1069 24.5319C95.3619 24.3635 95.5745 24.3635 95.7142 24.5319L97.6942 26.5341C97.9189 26.7566 97.9189 26.949 97.6942 27.1354C95.6681 28.6399 93.1934 29.4333 90.661 29.3901C89.3339 29.4268 88.0133 29.1939 86.7807 28.7058C85.5481 28.2177 84.4295 27.4847 83.4941 26.5521C82.5697 25.6101 81.8473 24.4928 81.3703 23.2674C80.8933 22.0419 80.6716 20.7336 80.7184 19.4211C80.6878 18.1444 80.9142 16.8744 81.3844 15.6851C81.8547 14.4959 82.5595 13.4113 83.4577 12.4945C84.31 11.6332 85.3351 10.9582 86.4669 10.5129C87.5988 10.0676 88.8123 9.86191 90.0293 9.90909C91.2382 9.8785 92.4399 10.1023 93.5549 10.5656C94.67 11.0289 95.673 11.7212 96.4977 12.5968C97.3918 13.52 98.0773 14.621 98.5088 15.8266C98.9402 17.0322 99.1077 18.3149 99 19.5895L98.9454 20.5094ZM93.4245 14.4005C92.4832 13.5459 91.2456 13.083 89.9686 13.1078C88.7399 13.0964 87.5518 13.5428 86.6402 14.3585C85.6734 15.2033 85.0299 16.352 84.8181 17.6113H94.9672C94.9622 16.9971 94.8216 16.3914 94.5551 15.8367C94.2886 15.2821 93.9027 14.7919 93.4245 14.4005Z" fill="#20BEFF"/>
</g>
<defs>
<clipPath id="clip0_5_18">
<rect width="99" height="38" fill="white" transform="translate(0 0.571442)"/>
</clipPath>
</defs>
</svg>
