<svg width="231" height="32" viewBox="0 0 231 32" fill="none" xmlns="http://www.w3.org/2000/svg">
<path d="M4.2 31C2.68 31 1.6 30.7067 0.96 30.12C0.346667 29.5067 0.0400001 28.6133 0.0400001 27.44C0.0400001 27.0933 0.0533334 26.5467 0.08 25.8C0.133333 25.0267 0.2 24.12 0.28 23.08C0.36 22.04 0.44 20.9067 0.52 19.68C0.626667 18.4533 0.733333 17.2 0.84 15.92C0.973333 14.3467 1.08 13 1.16 11.88C1.26667 10.7333 1.34667 9.76 1.4 8.96C1.45333 8.13333 1.49333 7.45333 1.52 6.92C1.57333 6.36 1.6 5.88 1.6 5.48C1.62667 5.05333 1.64 4.66666 1.64 4.32C1.66667 3.97333 1.68 3.6 1.68 3.2C1.68 2.98667 1.74667 2.84 1.88 2.76C2.01333 2.65333 2.14667 2.6 2.28 2.6C2.97333 2.6 3.73333 2.58667 4.56 2.56C5.38667 2.50666 6.21333 2.45333 7.04 2.4C7.86667 2.34667 8.66667 2.30667 9.44 2.28C10.2133 2.22667 10.8933 2.2 11.48 2.2C13.1867 2.2 14.6533 2.41333 15.88 2.84C17.1067 3.24 18.0933 3.84 18.84 4.64C19.6133 5.41333 20.1733 6.36 20.52 7.48C20.8933 8.6 21.08 9.88 21.08 11.32C21.08 12.8933 20.8667 14.4133 20.44 15.88C20.04 17.32 19.4 18.6 18.52 19.72C17.64 20.84 16.5067 21.7333 15.12 22.4C13.7333 23.0667 12.08 23.4 10.16 23.4C9.01333 23.4 8.04 23.28 7.24 23.04L6.68 30.4C6.65333 30.6133 6.6 30.7733 6.52 30.88C6.44 30.96 6.28 31 6.04 31H4.2ZM10.68 8.2C10.3333 8.2 9.94667 8.22667 9.52 8.28C9.09333 8.30667 8.64 8.34667 8.16 8.4C8.10667 9.52 8.04 10.88 7.96 12.48C7.88 14.08 7.77333 15.76 7.64 17.52C8.04 17.6267 8.42667 17.7067 8.8 17.76C9.2 17.7867 9.56 17.8 9.88 17.8C10.8133 17.8 11.56 17.5867 12.12 17.16C12.7067 16.7067 13.16 16.16 13.48 15.52C13.8 14.88 14.0133 14.2133 14.12 13.52C14.2267 12.8267 14.28 12.2267 14.28 11.72C14.28 10.5733 14.0133 9.70667 13.48 9.12C12.9733 8.50666 12.04 8.2 10.68 8.2ZM32.3956 31.4C31.2223 31.4 30.049 31.2533 28.8756 30.96C27.729 30.6667 26.689 30.16 25.7556 29.44C24.849 28.72 24.1023 27.76 23.5156 26.56C22.929 25.36 22.6356 23.8533 22.6356 22.04C22.6356 21.3733 22.689 20.5733 22.7956 19.64C22.9023 18.7067 23.1023 17.7467 23.3956 16.76C23.7156 15.7733 24.1423 14.8 24.6756 13.84C25.2356 12.8533 25.9556 11.9733 26.8356 11.2C27.7156 10.4267 28.7823 9.8 30.0356 9.32C31.289 8.84 32.7823 8.6 34.5156 8.6C35.9023 8.6 37.0756 8.76 38.0356 9.08C38.9956 9.4 39.769 9.84 40.3556 10.4C40.9423 10.9333 41.369 11.56 41.6356 12.28C41.9023 13 42.0356 13.7733 42.0356 14.6C42.0356 15.8267 41.7823 16.8667 41.2756 17.72C40.7956 18.5733 40.1556 19.2933 39.3556 19.88C38.5823 20.44 37.7156 20.88 36.7556 21.2C35.7956 21.52 34.849 21.7733 33.9156 21.96C32.9823 22.12 32.1156 22.2267 31.3156 22.28C30.5423 22.3067 29.9423 22.32 29.5156 22.32C29.5156 22.8267 29.5823 23.3333 29.7156 23.84C29.8756 24.32 30.1023 24.7467 30.3956 25.12C30.689 25.4933 31.0756 25.8 31.5556 26.04C32.0356 26.28 32.6223 26.4 33.3156 26.4C34.009 26.4 34.5423 26.2933 34.9156 26.08C35.3156 25.84 35.6356 25.5867 35.8756 25.32C36.1156 25.0267 36.3156 24.7733 36.4756 24.56C36.6623 24.32 36.9023 24.2 37.1956 24.2C37.329 24.2 37.5556 24.24 37.8756 24.32C38.2223 24.3733 38.569 24.5067 38.9156 24.72C39.2623 24.9333 39.569 25.2267 39.8356 25.6C40.1023 25.9733 40.2356 26.4533 40.2356 27.04C40.2356 27.8133 39.9956 28.48 39.5156 29.04C39.0356 29.6 38.409 30.0533 37.6356 30.4C36.889 30.7467 36.049 31 35.1156 31.16C34.1823 31.32 33.2756 31.4 32.3956 31.4ZM33.1556 13.92C32.569 13.92 32.0623 14.0933 31.6356 14.44C31.2356 14.76 30.889 15.1733 30.5956 15.68C30.329 16.1867 30.1156 16.7467 29.9556 17.36C29.8223 17.9733 29.7156 18.56 29.6356 19.12C31.289 19.0933 32.6223 18.8133 33.6356 18.28C34.6756 17.7467 35.1956 16.9867 35.1956 16C35.1956 15.4667 35.0223 14.9867 34.6756 14.56C34.3556 14.1333 33.849 13.92 33.1556 13.92ZM53.0447 14.4C52.9647 15.4133 52.8714 16.4133 52.7647 17.4C52.6847 18.3867 52.6047 19.32 52.5247 20.2C52.4447 21.08 52.378 21.8667 52.3247 22.56C52.298 23.2533 52.2847 23.7867 52.2847 24.16C52.2847 24.8533 52.3647 25.32 52.5247 25.56C52.6847 25.7733 52.9514 25.88 53.3247 25.88C53.618 25.88 53.8714 25.8267 54.0847 25.72C54.298 25.6133 54.498 25.4933 54.6847 25.36C54.8714 25.2267 55.0314 25.1067 55.1647 25C55.3247 24.8933 55.498 24.84 55.6847 24.84C55.8714 24.84 56.0447 24.9467 56.2047 25.16C56.3647 25.3733 56.4447 25.8667 56.4447 26.64C56.4447 28.1067 56.0447 29.2667 55.2447 30.12C54.4447 30.9733 53.0714 31.4 51.1247 31.4C49.2047 31.4 47.778 30.96 46.8447 30.08C45.938 29.1733 45.4847 27.8 45.4847 25.96C45.4847 25.56 45.498 25.0933 45.5247 24.56C45.578 24 45.6447 23.28 45.7247 22.4C45.8047 21.52 45.898 20.44 46.0047 19.16C46.138 17.88 46.2714 16.2933 46.4047 14.4H44.2847C44.0714 14.4 43.938 14.36 43.8847 14.28C43.858 14.1733 43.8447 14.0267 43.8447 13.84L43.9647 11.8C43.9914 11.4533 44.0314 11.12 44.0847 10.8C44.1647 10.4533 44.298 10.1467 44.4847 9.88C44.698 9.61333 44.9914 9.4 45.3647 9.24C45.738 9.08 46.2314 9 46.8447 9C47.0314 8.52 47.2447 7.94667 47.4847 7.28C47.7247 6.61333 47.9647 5.97333 48.2047 5.36C48.4447 4.72 48.6714 4.18667 48.8847 3.76C49.1247 3.33333 49.338 3.12 49.5247 3.12H50.6847C51.8047 3.12 52.578 3.46667 53.0047 4.16C53.4314 4.85333 53.6447 5.68 53.6447 6.64C53.6447 7.17333 53.6047 7.96 53.5247 9H57.7247C58.1514 9 58.3647 9.18667 58.3647 9.56L58.2047 11.72C58.1514 12.52 57.9247 13.1733 57.5247 13.68C57.1514 14.16 56.3647 14.4 55.1647 14.4H53.0447ZM72.8213 25.16C73.9146 25.16 74.8346 25 75.5813 24.68C76.3546 24.36 77.0079 24 77.5413 23.6C78.0746 23.2 78.5413 22.84 78.9413 22.52C79.3679 22.2 79.7946 22.04 80.2213 22.04C80.7546 22.04 81.0213 22.44 81.0213 23.24C81.0213 23.6667 80.9679 24.1867 80.8613 24.8C80.7546 25.3867 80.6079 26.0533 80.4213 26.8C80.3146 27.2533 80.0479 27.7467 79.6213 28.28C79.2213 28.8133 78.6613 29.32 77.9413 29.8C77.2213 30.2533 76.3279 30.64 75.2613 30.96C74.2213 31.2533 73.0213 31.4 71.6613 31.4C70.3013 31.4 68.9413 31.2 67.5813 30.8C66.2213 30.4 65.0079 29.72 63.9413 28.76C62.8746 27.8 62.0079 26.5067 61.3413 24.88C60.6746 23.2533 60.3413 21.2133 60.3413 18.76C60.3413 17.88 60.3946 16.8667 60.5013 15.72C60.6346 14.5467 60.8746 13.3467 61.2213 12.12C61.5679 10.8933 62.0479 9.69333 62.6613 8.52C63.3013 7.32 64.1146 6.25333 65.1013 5.32C66.0879 4.38667 67.2879 3.64 68.7013 3.08C70.1413 2.49333 71.8479 2.2 73.8213 2.2C75.3946 2.2 76.7546 2.38667 77.9013 2.76C79.0746 3.13333 80.0346 3.65333 80.7813 4.32C81.5546 4.96 82.1146 5.72 82.4613 6.6C82.8346 7.48 83.0213 8.41333 83.0213 9.4C83.0213 11.1067 82.5146 12.36 81.5013 13.16C80.5146 13.9333 79.1013 14.32 77.2613 14.32C76.6746 14.32 76.3013 14.28 76.1413 14.2C76.0079 14.0933 75.9413 13.8933 75.9413 13.6C75.9146 12.6933 75.8879 11.9067 75.8613 11.24C75.8346 10.5733 75.7413 10.0267 75.5813 9.6C75.4213 9.14667 75.1679 8.82667 74.8213 8.64C74.5013 8.42667 74.0479 8.32 73.4613 8.32C72.6079 8.32 71.8746 8.50667 71.2613 8.88C70.6746 9.22667 70.1679 9.69333 69.7413 10.28C69.3413 10.84 69.0079 11.48 68.7413 12.2C68.5013 12.92 68.3013 13.6533 68.1413 14.4C68.0079 15.1467 67.9146 15.8667 67.8613 16.56C67.8346 17.2533 67.8213 17.8533 67.8213 18.36C67.8213 20.8133 68.2213 22.56 69.0213 23.6C69.8479 24.64 71.1146 25.16 72.8213 25.16ZM89.7488 31.36C88.0954 31.36 86.9088 30.92 86.1888 30.04C85.4688 29.16 85.1088 27.7067 85.1088 25.68C85.1088 25.36 85.1221 24.96 85.1488 24.48C85.2021 24 85.2554 23.3867 85.3088 22.64C85.3888 21.8667 85.4821 20.92 85.5888 19.8C85.6954 18.68 85.8021 17.32 85.9088 15.72C86.0421 14.12 86.1754 12.24 86.3088 10.08C86.4688 7.92 86.6288 5.41333 86.7888 2.56C86.8154 1.97333 86.8821 1.62666 86.9888 1.52C87.0688 1.44 87.2821 1.4 87.6288 1.4H89.1888C89.9888 1.4 90.6554 1.49333 91.1888 1.68C91.7221 1.86667 92.1488 2.12 92.4688 2.44C92.7888 2.76 93.0154 3.13333 93.1488 3.56C93.2821 3.96 93.3488 4.38667 93.3488 4.84C93.3488 5.37333 93.3088 6.14667 93.2288 7.16C93.1754 8.14667 93.0954 9.26667 92.9888 10.52C92.8821 11.7733 92.7754 13.08 92.6688 14.44C92.5621 15.8 92.4554 17.1067 92.3488 18.36C92.2421 19.5867 92.1488 20.6933 92.0688 21.68C92.0154 22.6667 91.9888 23.4133 91.9888 23.92C91.9888 24.6133 92.1088 25.1067 92.3488 25.4C92.6154 25.6933 92.8954 25.9067 93.1888 26.04C93.4821 26.1467 93.7488 26.2267 93.9888 26.28C94.2554 26.3067 94.3888 26.3867 94.3888 26.52C94.3888 27.1067 94.3221 27.6933 94.1888 28.28C94.0554 28.84 93.8154 29.36 93.4688 29.84C93.1221 30.2933 92.6421 30.6667 92.0288 30.96C91.4421 31.2267 90.6821 31.36 89.7488 31.36ZM95.9791 26.08C95.9791 23.68 97.0591 21.8 99.2191 20.44C101.379 19.08 104.566 18.3467 108.779 18.24C108.806 17.9467 108.819 17.7067 108.819 17.52C108.846 17.3067 108.859 17.0533 108.859 16.76C108.859 15.9067 108.699 15.2267 108.379 14.72C108.059 14.2133 107.392 13.96 106.379 13.96C105.819 13.96 105.366 14.04 105.019 14.2C104.672 14.36 104.392 14.5867 104.179 14.88C103.966 15.1467 103.792 15.48 103.659 15.88C103.526 16.28 103.406 16.72 103.299 17.2C103.246 17.44 103.126 17.6 102.939 17.68C102.752 17.7333 102.459 17.76 102.059 17.76C99.3391 17.76 97.9791 16.7333 97.9791 14.68C97.9791 13.8533 98.1657 13.0667 98.5391 12.32C98.9391 11.5733 99.5124 10.9333 100.259 10.4C101.032 9.84 101.992 9.4 103.139 9.08C104.286 8.76 105.619 8.6 107.139 8.6C110.099 8.6 112.246 9.21333 113.579 10.44C114.912 11.6667 115.579 13.4 115.579 15.64C115.579 15.9333 115.539 16.4667 115.459 17.24C115.406 17.9867 115.326 18.7867 115.219 19.64C115.139 20.4667 115.059 21.2533 114.979 22C114.926 22.7467 114.899 23.2667 114.899 23.56C114.899 24.2267 115.019 24.7067 115.259 25C115.499 25.2667 115.766 25.4533 116.059 25.56C116.379 25.6667 116.659 25.7467 116.899 25.8C117.139 25.8533 117.259 25.9867 117.259 26.2C117.259 26.7867 117.179 27.3867 117.019 28C116.859 28.6133 116.592 29.1733 116.219 29.68C115.872 30.1867 115.379 30.6 114.739 30.92C114.126 31.24 113.366 31.4 112.459 31.4C111.179 31.4 110.219 31.0933 109.579 30.48C108.939 29.8667 108.512 29.0133 108.299 27.92C107.659 28.8533 106.819 29.6667 105.779 30.36C104.766 31.0533 103.432 31.4 101.779 31.4C100.979 31.4 100.219 31.3067 99.4991 31.12C98.8057 30.9333 98.1924 30.6267 97.6591 30.2C97.1524 29.7733 96.7391 29.2267 96.4191 28.56C96.1257 27.8667 95.9791 27.04 95.9791 26.08ZM108.419 21.52C107.726 21.52 107.046 21.5733 106.379 21.68C105.712 21.7867 105.112 21.96 104.579 22.2C104.072 22.4133 103.659 22.7067 103.339 23.08C103.019 23.4533 102.859 23.9067 102.859 24.44C102.859 25.0533 103.046 25.48 103.419 25.72C103.819 25.96 104.246 26.08 104.699 26.08C105.126 26.08 105.552 25.9867 105.979 25.8C106.406 25.6133 106.779 25.3333 107.099 24.96C107.446 24.56 107.739 24.08 107.979 23.52C108.219 22.96 108.366 22.2933 108.419 21.52ZM129.038 8.6C131.305 8.6 132.971 9.05333 134.038 9.96C135.105 10.84 135.638 11.9733 135.638 13.36C135.638 14.5333 135.265 15.4267 134.518 16.04C133.798 16.6533 132.745 16.96 131.358 16.96C130.985 16.96 130.731 16.92 130.598 16.84C130.465 16.76 130.398 16.6133 130.398 16.4C130.398 16.16 130.371 15.8933 130.318 15.6C130.291 15.28 130.198 14.9867 130.038 14.72C129.905 14.4267 129.678 14.1867 129.358 14C129.065 13.8133 128.638 13.72 128.078 13.72C127.331 13.72 126.731 13.9067 126.278 14.28C125.825 14.6267 125.598 15.0667 125.598 15.6C125.598 16.16 125.825 16.6133 126.278 16.96C126.758 17.28 127.345 17.5867 128.038 17.88C128.758 18.1733 129.531 18.48 130.358 18.8C131.185 19.0933 131.945 19.4933 132.638 20C133.358 20.5067 133.945 21.1467 134.398 21.92C134.878 22.6667 135.118 23.64 135.118 24.84C135.118 26.76 134.438 28.3333 133.078 29.56C131.718 30.7867 129.678 31.4 126.958 31.4C126.211 31.4 125.345 31.3333 124.358 31.2C123.398 31.0933 122.478 30.92 121.598 30.68C120.718 30.4133 119.971 30.0667 119.358 29.64C118.771 29.2133 118.478 28.68 118.478 28.04C118.478 27.8 118.518 27.5067 118.598 27.16C118.705 26.8133 118.851 26.48 119.038 26.16C119.251 25.84 119.491 25.5733 119.758 25.36C120.051 25.12 120.398 25 120.798 25C121.118 25 121.411 25.08 121.678 25.24C121.945 25.4 122.251 25.5733 122.598 25.76C122.971 25.92 123.425 26.08 123.958 26.24C124.491 26.4 125.198 26.48 126.078 26.48C126.745 26.48 127.331 26.4 127.838 26.24C128.371 26.08 128.638 25.72 128.638 25.16C128.638 24.6533 128.425 24.2533 127.998 23.96C127.571 23.64 127.025 23.3467 126.358 23.08C125.718 22.8133 125.011 22.5333 124.238 22.24C123.491 21.92 122.785 21.5067 122.118 21C121.478 20.4933 120.945 19.8533 120.518 19.08C120.091 18.28 119.878 17.2533 119.878 16C119.878 14.64 120.145 13.4933 120.678 12.56C121.238 11.6 121.945 10.8267 122.798 10.24C123.678 9.65333 124.665 9.24 125.758 9C126.851 8.73333 127.945 8.6 129.038 8.6ZM147.827 8.6C150.094 8.6 151.761 9.05333 152.827 9.96C153.894 10.84 154.427 11.9733 154.427 13.36C154.427 14.5333 154.054 15.4267 153.307 16.04C152.587 16.6533 151.534 16.96 150.147 16.96C149.774 16.96 149.521 16.92 149.387 16.84C149.254 16.76 149.187 16.6133 149.187 16.4C149.187 16.16 149.161 15.8933 149.107 15.6C149.081 15.28 148.987 14.9867 148.827 14.72C148.694 14.4267 148.467 14.1867 148.147 14C147.854 13.8133 147.427 13.72 146.867 13.72C146.121 13.72 145.521 13.9067 145.067 14.28C144.614 14.6267 144.387 15.0667 144.387 15.6C144.387 16.16 144.614 16.6133 145.067 16.96C145.547 17.28 146.134 17.5867 146.827 17.88C147.547 18.1733 148.321 18.48 149.147 18.8C149.974 19.0933 150.734 19.4933 151.427 20C152.147 20.5067 152.734 21.1467 153.187 21.92C153.667 22.6667 153.907 23.64 153.907 24.84C153.907 26.76 153.227 28.3333 151.867 29.56C150.507 30.7867 148.467 31.4 145.747 31.4C145.001 31.4 144.134 31.3333 143.147 31.2C142.187 31.0933 141.267 30.92 140.387 30.68C139.507 30.4133 138.761 30.0667 138.147 29.64C137.561 29.2133 137.267 28.68 137.267 28.04C137.267 27.8 137.307 27.5067 137.387 27.16C137.494 26.8133 137.641 26.48 137.827 26.16C138.041 25.84 138.281 25.5733 138.547 25.36C138.841 25.12 139.187 25 139.587 25C139.907 25 140.201 25.08 140.467 25.24C140.734 25.4 141.041 25.5733 141.387 25.76C141.761 25.92 142.214 26.08 142.747 26.24C143.281 26.4 143.987 26.48 144.867 26.48C145.534 26.48 146.121 26.4 146.627 26.24C147.161 26.08 147.427 25.72 147.427 25.16C147.427 24.6533 147.214 24.2533 146.787 23.96C146.361 23.64 145.814 23.3467 145.147 23.08C144.507 22.8133 143.801 22.5333 143.027 22.24C142.281 21.92 141.574 21.5067 140.907 21C140.267 20.4933 139.734 19.8533 139.307 19.08C138.881 18.28 138.667 17.2533 138.667 16C138.667 14.64 138.934 13.4933 139.467 12.56C140.027 11.6 140.734 10.8267 141.587 10.24C142.467 9.65333 143.454 9.24 144.547 9C145.641 8.73333 146.734 8.6 147.827 8.6ZM161.416 31C160.59 31 159.91 30.92 159.376 30.76C158.87 30.5733 158.456 30.32 158.136 30C157.843 29.68 157.63 29.2933 157.496 28.84C157.39 28.36 157.336 27.8133 157.336 27.2C157.336 26.8 157.35 26.24 157.376 25.52C157.43 24.7733 157.51 23.76 157.616 22.48C157.723 21.1733 157.843 19.5333 157.976 17.56C158.136 15.56 158.323 13.0933 158.536 10.16C158.563 9.57333 158.63 9.22666 158.736 9.12C158.816 9.04 159.03 9 159.376 9H160.936C161.763 9 162.43 9.08 162.936 9.24C163.47 9.4 163.883 9.64 164.176 9.96C164.496 10.28 164.71 10.6667 164.816 11.12C164.95 11.5733 165.016 12.08 165.016 12.64C165.016 13.04 164.99 13.64 164.936 14.44C164.883 15.24 164.803 16.3333 164.696 17.72C164.616 19.08 164.496 20.7867 164.336 22.84C164.176 24.8667 163.976 27.32 163.736 30.2C163.71 30.52 163.643 30.7333 163.536 30.84C163.43 30.9467 163.203 31 162.856 31H161.416ZM158.576 4.28C158.576 3.21333 158.963 2.37333 159.736 1.76C160.51 1.14667 161.55 0.84 162.856 0.84C164.003 0.84 164.83 1.08 165.336 1.56C165.87 2.01333 166.136 2.62666 166.136 3.4C166.136 4.38666 165.763 5.21333 165.016 5.88C164.296 6.52 163.23 6.84 161.816 6.84C159.656 6.84 158.576 5.98667 158.576 4.28ZM185.066 31C184.24 31 183.56 30.92 183.026 30.76C182.52 30.5733 182.106 30.32 181.786 30C181.493 29.68 181.28 29.2933 181.146 28.84C181.04 28.36 180.986 27.8133 180.986 27.2C180.986 26.8533 180.986 26.5067 180.986 26.16C181.013 25.7867 181.053 25.2667 181.106 24.6C181.16 23.9067 181.226 22.9867 181.306 21.84C181.413 20.6667 181.533 19.1067 181.666 17.16H176.826C176.773 17.96 176.706 18.8267 176.626 19.76C176.546 20.6933 176.466 21.64 176.386 22.6C176.306 23.5333 176.226 24.4533 176.146 25.36C176.093 26.2667 176.04 27.0667 175.986 27.76C175.933 28.4533 175.88 29.0267 175.826 29.48C175.8 29.9333 175.786 30.1733 175.786 30.2C175.76 30.52 175.693 30.7333 175.586 30.84C175.48 30.9467 175.253 31 174.906 31H173.466C172.746 31 172.133 30.9467 171.626 30.84C171.146 30.7333 170.746 30.5333 170.426 30.24C170.133 29.9467 169.92 29.5333 169.786 29C169.653 28.4667 169.586 27.7733 169.586 26.92C169.666 25.9333 169.746 24.8933 169.826 23.8C169.88 22.8667 169.946 21.8267 170.026 20.68C170.106 19.5067 170.2 18.3333 170.306 17.16H168.386C168.093 17.16 167.946 17.0133 167.946 16.72L168.066 14.56C168.093 14.24 168.133 13.92 168.186 13.6C168.266 13.2533 168.386 12.96 168.546 12.72C168.733 12.4533 169 12.24 169.346 12.08C169.693 11.8933 170.146 11.7867 170.706 11.76L170.866 10.16C171.026 8.42667 171.373 6.97333 171.906 5.8C172.466 4.6 173.173 3.64 174.026 2.92C174.906 2.17333 175.933 1.64 177.106 1.32C178.306 0.999999 179.653 0.84 181.146 0.84C182.613 0.84 183.866 0.973333 184.906 1.24C185.946 1.48 186.8 1.82667 187.466 2.28C188.133 2.73333 188.613 3.26667 188.906 3.88C189.2 4.46667 189.346 5.09333 189.346 5.76C189.346 7.14666 188.906 8.13333 188.026 8.72C187.173 9.30667 186.013 9.6 184.546 9.6C184.146 9.6 183.866 9.57333 183.706 9.52C183.573 9.44 183.506 9.28 183.506 9.04C183.506 8.61333 183.48 8.22667 183.426 7.88C183.4 7.50667 183.306 7.2 183.146 6.96C182.986 6.72 182.746 6.53333 182.426 6.4C182.106 6.26667 181.68 6.2 181.146 6.2C180.48 6.2 179.92 6.36 179.466 6.68C179.013 7 178.64 7.42667 178.346 7.96C178.053 8.46667 177.826 9.05333 177.666 9.72C177.506 10.3867 177.373 11.0667 177.266 11.76H184.506C185.306 11.76 185.96 11.8533 186.466 12.04C186.973 12.2 187.373 12.44 187.666 12.76C187.96 13.08 188.16 13.4667 188.266 13.92C188.4 14.3467 188.466 14.84 188.466 15.4C188.466 15.8 188.453 16.2533 188.426 16.76C188.4 17.2667 188.346 18.04 188.266 19.08C188.186 20.12 188.08 21.52 187.946 23.28C187.813 25.0133 187.626 27.32 187.386 30.2C187.36 30.52 187.293 30.7333 187.186 30.84C187.08 30.9467 186.853 31 186.506 31H185.066ZM200.872 31.4C199.699 31.4 198.526 31.2533 197.352 30.96C196.206 30.6667 195.166 30.16 194.232 29.44C193.326 28.72 192.579 27.76 191.992 26.56C191.406 25.36 191.112 23.8533 191.112 22.04C191.112 21.3733 191.166 20.5733 191.272 19.64C191.379 18.7067 191.579 17.7467 191.872 16.76C192.192 15.7733 192.619 14.8 193.152 13.84C193.712 12.8533 194.432 11.9733 195.312 11.2C196.192 10.4267 197.259 9.8 198.512 9.32C199.766 8.84 201.259 8.6 202.992 8.6C204.379 8.6 205.552 8.76 206.512 9.08C207.472 9.4 208.246 9.84 208.832 10.4C209.419 10.9333 209.846 11.56 210.112 12.28C210.379 13 210.512 13.7733 210.512 14.6C210.512 15.8267 210.259 16.8667 209.752 17.72C209.272 18.5733 208.632 19.2933 207.832 19.88C207.059 20.44 206.192 20.88 205.232 21.2C204.272 21.52 203.326 21.7733 202.392 21.96C201.459 22.12 200.592 22.2267 199.792 22.28C199.019 22.3067 198.419 22.32 197.992 22.32C197.992 22.8267 198.059 23.3333 198.192 23.84C198.352 24.32 198.579 24.7467 198.872 25.12C199.166 25.4933 199.552 25.8 200.032 26.04C200.512 26.28 201.099 26.4 201.792 26.4C202.486 26.4 203.019 26.2933 203.392 26.08C203.792 25.84 204.112 25.5867 204.352 25.32C204.592 25.0267 204.792 24.7733 204.952 24.56C205.139 24.32 205.379 24.2 205.672 24.2C205.806 24.2 206.032 24.24 206.352 24.32C206.699 24.3733 207.046 24.5067 207.392 24.72C207.739 24.9333 208.046 25.2267 208.312 25.6C208.579 25.9733 208.712 26.4533 208.712 27.04C208.712 27.8133 208.472 28.48 207.992 29.04C207.512 29.6 206.886 30.0533 206.112 30.4C205.366 30.7467 204.526 31 203.592 31.16C202.659 31.32 201.752 31.4 200.872 31.4ZM201.632 13.92C201.046 13.92 200.539 14.0933 200.112 14.44C199.712 14.76 199.366 15.1733 199.072 15.68C198.806 16.1867 198.592 16.7467 198.432 17.36C198.299 17.9733 198.192 18.56 198.112 19.12C199.766 19.0933 201.099 18.8133 202.112 18.28C203.152 17.7467 203.672 16.9867 203.672 16C203.672 15.4667 203.499 14.9867 203.152 14.56C202.832 14.1333 202.326 13.92 201.632 13.92ZM225.841 18.56C225.681 18.56 225.495 18.56 225.281 18.56C225.095 18.5333 224.908 18.5067 224.721 18.48C224.535 18.4267 224.375 18.3733 224.241 18.32C224.108 18.24 224.041 18.1467 224.041 18.04C224.041 17.6933 224.055 17.3733 224.081 17.08C224.108 16.7867 224.121 16.48 224.121 16.16C224.121 15.5733 224.041 15.0933 223.881 14.72C223.721 14.3467 223.401 14.16 222.921 14.16C222.175 14.16 221.548 14.6533 221.041 15.64C220.561 16.6 220.255 18.0533 220.121 20C220.068 20.8533 219.988 21.8267 219.881 22.92C219.801 23.9867 219.721 25.0267 219.641 26.04C219.561 27.0267 219.495 27.9067 219.441 28.68C219.388 29.4533 219.361 29.96 219.361 30.2C219.361 30.4667 219.268 30.6667 219.081 30.8C218.895 30.9333 218.695 31 218.481 31H217.041C216.215 31 215.535 30.92 215.001 30.76C214.495 30.5733 214.081 30.32 213.761 30C213.468 29.68 213.255 29.2933 213.121 28.84C213.015 28.36 212.961 27.8133 212.961 27.2C212.961 26.8 212.975 26.24 213.001 25.52C213.055 24.7733 213.135 23.76 213.241 22.48C213.348 21.1733 213.468 19.5333 213.601 17.56C213.761 15.56 213.948 13.0933 214.161 10.16C214.215 9.38667 214.495 9 215.001 9H216.561C217.308 9 217.935 9.08 218.441 9.24C218.948 9.4 219.361 9.62667 219.681 9.92C220.001 10.1867 220.228 10.5067 220.361 10.88C220.521 11.2533 220.628 11.64 220.681 12.04C221.001 11.4267 221.375 10.9067 221.801 10.48C222.255 10.0267 222.721 9.66667 223.201 9.4C223.681 9.10667 224.175 8.90667 224.681 8.8C225.188 8.66667 225.655 8.6 226.081 8.6C226.588 8.6 227.095 8.69333 227.601 8.88C228.135 9.06667 228.615 9.34667 229.041 9.72C229.468 10.0933 229.801 10.5733 230.041 11.16C230.308 11.7467 230.441 12.44 230.441 13.24C230.441 13.96 230.335 14.64 230.121 15.28C229.908 15.92 229.601 16.4933 229.201 17C228.801 17.48 228.308 17.8667 227.721 18.16C227.161 18.4267 226.535 18.56 225.841 18.56Z" fill="#FD9200"/>
</svg>
