<svg width="497" height="383" viewBox="0 0 497 383" fill="none" xmlns="http://www.w3.org/2000/svg">
<g clip-path="url('#clip0_3_3')">
<path d="M165.704 240.361C165.872 239.222 165.787 238.06 165.456 236.957C165.124 235.854 164.554 234.837 163.785 233.977C163.016 233.117 162.068 232.436 161.006 231.981C159.944 231.526 158.795 231.308 157.64 231.343L107 180.342L96.9957 194.272L149.919 240.024C150.107 241.954 150.999 243.748 152.426 245.066C153.853 246.384 155.715 247.135 157.661 247.176C159.607 247.218 161.5 246.547 162.982 245.291C164.465 244.035 165.433 242.281 165.704 240.361Z" fill="#FFB8B8"></path>
<path d="M141.716 210.911L128.79 223.772C128.171 224.384 127.335 224.729 126.463 224.733C125.591 224.737 124.752 224.398 124.128 223.791L88.8089 189.203C87.5878 188.007 86.6169 186.582 85.9522 185.01C85.2876 183.437 84.9424 181.75 84.9367 180.044C84.931 178.338 85.2649 176.648 85.919 175.072C86.5731 173.495 87.5345 172.063 88.7476 170.859C89.9606 169.655 91.4013 168.703 92.9863 168.057C94.5713 167.411 96.2691 167.084 97.9815 167.096C99.694 167.108 101.387 167.457 102.963 168.125C104.539 168.793 105.966 169.765 107.163 170.985L141.745 206.273C142.351 206.896 142.688 207.731 142.682 208.598C142.677 209.466 142.33 210.296 141.716 210.911Z" fill="#FD9200"></path>
<path d="M96.3853 147.785C106.369 147.785 114.462 139.723 114.462 129.779C114.462 119.834 106.369 111.772 96.3853 111.772C86.4017 111.772 78.3083 119.834 78.3083 129.779C78.3083 139.723 86.4017 147.785 96.3853 147.785Z" fill="#FFB8B8"></path>
<path d="M35.3038 345.557L39.881 353.302L72.0531 339.403L65.2974 327.971L35.3038 345.557Z" fill="#FFB8B8"></path>
<path d="M36.6754 342.093L45.6894 357.347C46.4438 358.623 46.9387 360.036 47.1452 361.503C47.3517 362.97 47.266 364.463 46.8932 365.897C46.5203 367.331 45.8675 368.678 44.9721 369.861C44.0767 371.044 42.9562 372.039 41.6745 372.791L41.3574 372.976L26.5988 348.001L36.6754 342.093Z" fill="#2F2E41"></path>
<path d="M88.3379 373.461H97.3613L101.654 338.793L88.3364 338.794L88.3379 373.461Z" fill="#FFB8B8"></path>
<path d="M86.0365 370.527L103.806 370.526H103.807C105.294 370.526 106.767 370.818 108.141 371.385C109.515 371.952 110.763 372.783 111.815 373.83C112.866 374.878 113.701 376.121 114.27 377.49C114.839 378.858 115.132 380.325 115.132 381.807V382.173L86.0371 382.174L86.0365 370.527Z" fill="#2F2E41"></path>
<path d="M52.0615 352.457C51.5422 352.458 51.0301 352.336 50.5667 352.103C50.1033 351.869 49.7016 351.53 49.3942 351.114L40.6919 339.341C40.4264 338.981 40.2368 338.572 40.1345 338.138C40.0322 337.704 40.0193 337.254 40.0967 336.814C40.174 336.375 40.34 335.956 40.5846 335.583C40.8291 335.209 41.1472 334.889 41.5195 334.641L80.2436 308.878L56.878 247.68L106.845 251.787L108.528 304.377C108.685 309.167 107.533 313.909 105.194 318.096C102.854 322.283 99.4157 325.758 95.2462 328.148L53.7162 352.014C53.2134 352.304 52.6426 352.457 52.0615 352.457Z" fill="#2F2E41"></path>
<path d="M88.6104 366.423C87.7535 366.422 86.9305 366.089 86.3144 365.496C85.6983 364.903 85.3371 364.095 85.3066 363.242L83.4755 312.009L106.15 310.819L104.345 362.42C104.318 363.237 103.987 364.016 103.416 364.603C102.844 365.19 102.073 365.544 101.254 365.596L88.8356 366.416C88.7602 366.421 88.6851 366.423 88.6104 366.423Z" fill="#2F2E41"></path>
<path d="M112.627 261.961C106.858 261.961 86.7078 255.497 79.7124 253.194C78.6659 254.028 72.9168 258.31 66.206 257.527C62.0652 257.043 58.4199 254.708 55.3713 250.587C48.6391 241.486 56.9542 202.457 65.1152 171.317C66.7513 165.023 70.7735 159.606 76.3363 156.204C81.8991 152.802 88.5691 151.681 94.9443 153.077C99.565 154.093 103.81 156.372 107.201 159.659C110.593 162.946 112.998 167.109 114.145 171.682C115.681 177.912 114.36 185.241 113.394 190.593C112.941 193.108 112.582 195.096 112.705 196.072C113.179 199.847 115.81 259.042 114.118 261.57C113.938 261.839 113.417 261.961 112.627 261.961Z" fill="#FD9200"></path>
<path d="M91.5225 262.066C92.4497 261.378 93.2142 260.497 93.7623 259.483C94.3104 258.469 94.6287 257.348 94.6948 256.199C94.7609 255.049 94.5731 253.899 94.1448 252.83C93.7164 251.76 93.0579 250.798 92.2155 250.009L92.5727 178.277L75.6117 181.09L80.5939 250.716C79.3579 252.213 78.7163 254.11 78.7906 256.047C78.865 257.984 79.6501 259.827 80.9972 261.226C82.3443 262.625 84.1597 263.483 86.0996 263.638C88.0395 263.793 89.969 263.233 91.5225 262.066Z" fill="#FFB8B8"></path>
<path d="M95.4453 224.344H77.1765C76.304 224.341 75.4677 223.997 74.848 223.385C74.2283 222.774 73.875 221.944 73.8644 221.075L73.4159 171.741C73.4004 170.035 73.7245 168.343 74.3696 166.763C75.0146 165.182 75.9679 163.745 77.1741 162.534C78.3803 161.323 79.8157 160.362 81.397 159.707C82.9784 159.052 84.6744 158.716 86.3871 158.718C88.0997 158.72 89.7949 159.061 91.3747 159.72C92.9545 160.378 94.3874 161.343 95.5907 162.557C96.7939 163.771 97.7436 165.21 98.3848 166.792C99.026 168.374 99.346 170.067 99.3262 171.772L98.7571 221.083C98.7442 221.95 98.3899 222.778 97.7706 223.388C97.1512 223.997 96.3162 224.341 95.4453 224.344Z" fill="#FD9200"></path>
<path d="M91.7824 147.71C83.5059 147.725 75.6977 141.209 74.2635 133.089C73.75 129.899 73.9815 126.635 74.9401 123.548C75.9808 120.035 77.7656 116.785 80.1742 114.017C82.5828 111.249 85.5591 109.027 88.9026 107.502C92.2461 105.977 95.879 105.183 99.5563 105.175C103.234 105.167 106.87 105.944 110.221 107.454C112.435 108.452 114.616 109.886 115.629 112.086C116.643 114.286 116.009 117.361 113.791 118.351C112.342 118.998 110.523 118.68 109.237 119.609C107.39 120.942 107.866 123.781 108.69 125.9C109.515 128.018 110.448 130.582 109.065 132.39C107.777 134.074 105.202 134.022 103.174 133.388C101.146 132.754 99.144 131.692 97.0295 131.908C93.9453 132.223 91.729 135.279 91.3188 138.34C90.9085 141.401 91.8743 144.461 92.8277 147.399L91.7824 147.71Z" fill="#2F2E41"></path>
<path d="M317.984 166.087C317.984 116.846 358.058 0 407.492 0C456.926 0 497 116.846 497 166.087C497 189.734 487.57 212.411 470.784 229.132C453.998 245.852 431.231 255.246 407.492 255.246C383.753 255.246 360.986 245.852 344.2 229.132C327.414 212.411 317.984 189.734 317.984 166.087Z" fill="#FD9200"></path>
<path d="M407.492 383C407.297 383 407.11 382.923 406.972 382.785C406.834 382.648 406.756 382.461 406.756 382.267V74.8773C406.756 74.6828 406.834 74.4964 406.972 74.3589C407.11 74.2214 407.297 74.1441 407.492 74.1441C407.687 74.1441 407.874 74.2214 408.013 74.3589C408.151 74.4964 408.228 74.6828 408.228 74.8773V382.267C408.228 382.461 408.151 382.648 408.013 382.785C407.874 382.923 407.687 383 407.492 383Z" fill="#3F3D56"></path>
<path d="M407.492 134.221C407.395 134.221 407.3 134.202 407.21 134.165C407.121 134.129 407.04 134.074 406.972 134.006L371.544 98.7176C371.408 98.5798 371.332 98.3938 371.332 98.2001C371.333 98.0065 371.41 97.821 371.548 97.6841C371.685 97.5472 371.872 97.47 372.066 97.4694C372.26 97.4688 372.447 97.5448 372.585 97.6809L408.013 132.97C408.115 133.072 408.185 133.203 408.214 133.345C408.242 133.487 408.228 133.635 408.172 133.768C408.116 133.902 408.022 134.017 407.901 134.097C407.78 134.178 407.638 134.221 407.492 134.221Z" fill="#3F3D56"></path>
<path d="M407.492 195.313C407.347 195.313 407.204 195.27 407.083 195.189C406.962 195.109 406.868 194.994 406.812 194.86C406.756 194.726 406.742 194.579 406.77 194.437C406.799 194.294 406.869 194.164 406.972 194.061L466.301 134.963C466.439 134.828 466.626 134.752 466.82 134.752C467.014 134.753 467.201 134.83 467.338 134.967C467.475 135.104 467.553 135.289 467.554 135.483C467.554 135.676 467.478 135.862 467.342 136L408.013 195.098C407.944 195.166 407.863 195.22 407.774 195.257C407.685 195.294 407.589 195.313 407.492 195.313Z" fill="#3F3D56"></path>
<path d="M159.787 239.944C171.53 237.3 184.834 246.449 185.246 258.732C185.362 262.187 184.345 265.815 181.677 268.166C179.473 270.106 176.194 271.085 173.346 270.136C167.865 268.311 167.572 260.703 170.512 256.64C174.494 251.138 182.381 250.198 188.64 250.853C196.291 251.653 203.563 254.995 209.666 259.575C221.882 268.745 229.662 282.799 235.958 296.378C242.404 310.307 247.091 324.979 249.912 340.057C250.267 341.951 250.592 343.85 250.888 345.754C250.971 346.033 251.162 346.268 251.418 346.408C251.674 346.548 251.975 346.582 252.257 346.502C252.534 346.415 252.766 346.224 252.906 345.97C253.046 345.717 253.082 345.419 253.008 345.139C250.431 328.685 245.67 312.645 238.851 297.44C232.259 282.724 223.947 267.46 210.725 257.639C204.134 252.744 196.351 249.337 188.114 248.609C181.179 247.995 172.968 249.457 168.656 255.464C165.254 260.203 165.599 268.08 170.863 271.381C173.757 273.195 177.434 272.983 180.439 271.573C182.034 270.788 183.438 269.668 184.555 268.289C185.671 266.91 186.473 265.306 186.906 263.588C188.775 256.766 185.937 249.387 181.071 244.511C176.504 239.922 170.297 237.322 163.81 237.281C162.248 237.298 160.692 237.483 159.17 237.832C157.784 238.144 158.403 240.256 159.787 239.944Z" fill="#CCCCCC"></path>
<path d="M216.418 375.032L209.12 362.622L218.119 357.372L225.416 369.782C226.115 370.971 226.311 372.387 225.961 373.72C225.612 375.053 224.745 376.193 223.552 376.889C222.359 377.585 220.937 377.781 219.599 377.432C218.261 377.084 217.117 376.221 216.418 375.032Z" fill="#FD9200"></path>
<path d="M192.29 349.236C195.834 349.236 198.707 346.374 198.707 342.844C198.707 339.314 195.834 336.452 192.29 336.452C188.746 336.452 185.872 339.314 185.872 342.844C185.872 346.374 188.746 349.236 192.29 349.236Z" fill="#FD9200"></path>
<path d="M244.652 375.032L237.355 362.622L246.352 357.372L253.65 369.782C254.347 370.971 254.542 372.386 254.192 373.718C253.842 375.049 252.976 376.188 251.783 376.884C250.591 377.58 249.17 377.776 247.833 377.428C246.496 377.081 245.352 376.219 244.652 375.032Z" fill="#FD9200"></path>
<path d="M193.509 355.722C193.513 352.12 194.951 348.668 197.507 346.121C200.064 343.575 203.53 342.142 207.145 342.138H250.313C251.841 342.14 253.306 342.746 254.386 343.822C255.467 344.898 256.075 346.358 256.076 347.88V352.773C256.071 357.156 254.321 361.358 251.21 364.457C248.098 367.557 243.88 369.3 239.479 369.305H207.145C203.53 369.301 200.064 367.868 197.507 365.322C194.951 362.775 193.513 359.323 193.509 355.722Z" fill="#3F3D56"></path>
<path d="M203.464 376.633V362.25H213.892V376.633C213.892 378.01 213.342 379.331 212.364 380.305C211.387 381.279 210.06 381.826 208.678 381.826C207.295 381.826 205.969 381.279 204.991 380.305C204.013 379.331 203.464 378.01 203.464 376.633Z" fill="#3F3D56"></path>
<path d="M233.723 376.633V362.25H244.151V376.633C244.151 377.315 244.017 377.991 243.755 378.622C243.494 379.253 243.11 379.826 242.626 380.309C242.141 380.792 241.566 381.175 240.933 381.436C240.3 381.698 239.622 381.832 238.937 381.832C238.251 381.832 237.573 381.698 236.94 381.436C236.307 381.175 235.732 380.792 235.248 380.309C234.763 379.826 234.379 379.253 234.118 378.622C233.856 377.991 233.722 377.315 233.723 376.633Z" fill="#3F3D56"></path>
<path d="M276.149 319.73C277.216 318.412 278.765 317.57 280.455 317.388C282.145 317.206 283.838 317.699 285.163 318.759C286.488 319.819 287.337 321.36 287.523 323.043C287.709 324.725 287.218 326.413 286.156 327.735L275.608 340.818L265.601 332.812L276.149 319.73Z" fill="#FD9200"></path>
<path d="M250.74 345.501L259.191 335.021C261.246 332.478 264.229 330.852 267.486 330.497C270.744 330.143 274.009 331.09 276.566 333.131L279.207 335.244C282.25 337.684 284.197 341.227 284.621 345.096C285.045 348.964 283.911 352.842 281.468 355.879L274.506 364.514C273.737 365.466 272.62 366.075 271.4 366.208C270.181 366.34 268.958 365.986 268.001 365.222L251.451 351.981C250.495 351.215 249.884 350.102 249.75 348.888C249.617 347.673 249.973 346.455 250.74 345.501Z" fill="#3F3D56"></path>
<path d="M277.405 318.173C277.768 317.723 278.216 317.348 278.724 317.071C279.232 316.793 279.79 316.618 280.366 316.556C280.942 316.493 281.525 316.544 282.081 316.706C282.637 316.867 283.156 317.137 283.608 317.498C284.059 317.859 284.435 318.306 284.714 318.812C284.992 319.318 285.168 319.874 285.231 320.447C285.294 321.021 285.242 321.602 285.08 322.156C284.918 322.71 284.648 323.226 284.285 323.676L272.481 338.316L265.601 332.812L277.405 318.173Z" fill="#3F3D56"></path>
<path d="M260.495 342.644L278.632 357.153C279.954 358.216 280.799 359.758 280.981 361.441C281.163 363.124 280.668 364.81 279.604 366.129C278.54 367.449 276.994 368.294 275.306 368.48C273.617 368.666 271.923 368.177 270.595 367.121L252.458 352.611L260.495 342.644Z" fill="#3F3D56"></path>
<path d="M280.394 366.613C281.33 365.452 281.564 364.091 280.916 363.572C280.268 363.054 278.984 363.576 278.048 364.737C277.112 365.898 276.878 367.259 277.526 367.778C278.173 368.296 279.457 367.774 280.394 366.613Z" fill="#FD9200"></path>
<path d="M460.313 382.864H-48.264C-48.4592 382.864 -48.6464 382.787 -48.7844 382.649C-48.9225 382.512 -49 382.325 -49 382.131C-49 381.937 -48.9225 381.75 -48.7844 381.613C-48.6464 381.475 -48.4592 381.398 -48.264 381.398H460.313C460.508 381.398 460.696 381.475 460.834 381.613C460.972 381.75 461.049 381.937 461.049 382.131C461.049 382.325 460.972 382.512 460.834 382.649C460.696 382.787 460.508 382.864 460.313 382.864Z" fill="#CCCCCC"></path>
</g>
<defs>
<clipPath id="clip0_3_3">
<rect width="546" height="383" fill="white" transform="translate(-49)"></rect>
</clipPath>
</defs>
</svg>
