<svg width="203" height="72" viewBox="0 0 203 72" fill="none" xmlns="http://www.w3.org/2000/svg">
<g clip-path="url('#clip0_5_22')">
<path d="M128.057 77.0082L95.7117 76.0916C95.7117 76.0916 98.1464 61.565 90.335 57.5338C85.0108 54.784 80.2856 41.9402 81.6298 33.2006C81.648 33.0843 81.6663 32.968 81.6869 32.854C82.3681 28.9413 84.3159 25.9111 88.0398 25.088C100.078 22.4294 108.669 24.4906 108.669 24.4906C108.669 24.4906 110.658 24.5157 113.605 25.0675C113.71 25.0857 113.815 25.1062 113.92 25.129C122.262 26.7593 137.681 32.5644 138.349 53.1765C139.268 81.4954 128.057 77.0036 128.057 77.0036V77.0082Z" fill="#3F3D56"></path>
<path d="M113.605 25.0697C113.55 26.5472 113.214 28.0156 112.601 29.411C111.33 32.3045 109.012 34.5139 106.077 35.6334C97.2845 38.9897 87.0248 35.6608 81.8355 32.0514C81.8149 32.1654 81.4034 34.3292 81.3851 34.4455C83.6826 36.0142 94.9276 37.5259 97.0605 37.5259C100.3 37.5259 103.418 36.9901 106.191 35.9298C109.206 34.7784 111.586 32.5074 112.891 29.5364C113.515 28.1182 113.858 26.6293 113.92 25.129C113.815 25.1062 113.71 25.0857 113.605 25.0674V25.0697Z" fill="#FD9200"></path>
<path d="M115.996 26.9508L110.841 14.0203C110.841 14.0203 117.029 3.44067 112.167 2.26642C107.304 1.08989 102.296 7.40805 102.296 7.40805C102.296 7.40805 93.0142 4.17487 89.48 6.81978C89.48 6.81978 83.5866 -1.4091 80.0524 0.207489C76.5159 1.82408 81.3097 13.4731 81.3097 13.4731C81.3097 13.4731 74.0127 24.1577 79.6112 30.3276C85.2097 36.4999 106.276 41.4956 115.998 26.9485L115.996 26.9508Z" fill="#3F3D56"></path>
<path d="M127.053 69.2695C128.809 70.0493 130.642 70.8427 132.563 70.7675C134.483 70.6923 136.502 69.4587 136.801 67.5662C136.956 66.5881 136.65 65.5415 137.025 64.6249C137.53 63.3937 139.158 62.9171 140.422 63.3389C141.689 63.7608 142.617 64.8506 143.284 66.0021C144.532 68.1591 145.031 70.991 143.693 73.0932C142.534 74.915 140.335 75.7404 138.291 76.4472C135.567 77.3889 132.526 78.3215 129.886 77.1655C127.232 76.0026 125.785 72.644 126.768 69.9239" fill="#3F3D56"></path>
<path d="M98.0115 21.1388C98.0115 21.1388 94.8385 19.8734 92.7788 21.4558L95.1586 25.0948L98.0138 21.1411L98.0115 21.1388Z" fill="#FD9200"></path>
<path d="M81.3578 37.7471L87.226 68.9115C87.226 68.9115 78.3448 77.9293 89.7635 77.7697C101.182 77.6124 97.8515 71.7593 97.8515 71.7593L94.203 44.7082" fill="#3F3D56"></path>
<path d="M89.4754 78C86.3824 78 84.5124 77.2932 83.9135 75.8955C82.823 73.3509 86.3733 69.4724 86.9813 68.834L83.0356 45.5359L83.486 45.4607L87.4706 68.9868L87.3883 69.0688C87.3471 69.1099 83.2871 73.2756 84.3341 75.7153C84.8713 76.9694 86.6933 77.5827 89.7612 77.5394C94.0246 77.4801 96.7724 76.5886 97.7097 74.9629C98.5533 73.4991 97.6617 71.8848 97.6526 71.8688L97.632 71.83L97.6251 71.7867L95.0876 52.9622L95.5403 52.9006L98.0732 71.6841C98.2241 71.9691 99.0128 73.6131 98.1098 75.1863C97.0742 76.9876 94.2669 77.9339 89.768 77.9954C89.6697 77.9954 89.5737 77.9954 89.4777 77.9954L89.4754 78Z" fill="#2F2E41"></path>
<path d="M96.265 37.7471L102.133 68.9115C102.133 68.9115 93.252 77.9293 104.671 77.7697C116.09 77.6124 112.759 71.7593 112.759 71.7593L109.11 44.7082" fill="#3F3D56"></path>
<path d="M104.383 78C101.29 78 99.4197 77.2932 98.8208 75.8955C97.7303 73.3554 101.274 69.4816 101.886 68.8363L99.5294 56.2957L99.9798 56.2114L102.38 68.9845L102.296 69.0689C102.254 69.1099 98.1944 73.2756 99.2414 75.7154C99.7786 76.9694 101.603 77.585 104.668 77.5394C108.934 77.4802 111.684 76.5886 112.619 74.9584C113.463 73.49 112.569 71.8848 112.56 71.8688L112.537 71.8301L108.884 44.7356L109.337 44.674L112.978 71.6841C113.129 71.9691 113.918 73.6131 113.015 75.1864C111.979 76.9876 109.172 77.9339 104.673 77.9955C104.575 77.9955 104.479 77.9955 104.383 77.9955V78Z" fill="#2F2E41"></path>
</g>
<defs>
<clipPath id="clip0_5_22">
<rect width="203" height="78" fill="white"></rect>
</clipPath>
</defs>
</svg>
